<?xml version="1.0" encoding="UTF-8"?>
<svg version="1.1" xmlns="http://www.w3.org/2000/svg" width="612" height="408">
<path d="M0 0 C1.98 0 3.96 0 6 0 C6 0.99 6 1.98 6 3 C6.66 3 7.32 3 8 3 C8 3.99 8 4.98 8 6 C10.0399719 4.63676257 10.0399719 4.63676257 12 3 C12 2.34 12 1.68 12 1 C17.52 1.75272727 17.52 1.75272727 20.0625 3.0625 C23.56104163 4.75534272 26.40900973 4.19699676 30 3 C30.99 3.33 31.98 3.66 33 4 C33 4.66 33 5.32 33 6 C33.66386719 6.03738281 34.32773438 6.07476562 35.01171875 6.11328125 C40.07036379 6.4899103 43.84180819 6.81205295 48 10 C46.25 13.875 46.25 13.875 44 15 C42.48078048 18.06517018 41.10778841 21.18122099 39.73046875 24.3125 C38 27 38 27 35.36328125 27.8125 C34.19345703 27.9053125 34.19345703 27.9053125 33 28 C32.505 28.495 32.505 28.495 32 29 C32.46188266 33.20075215 32.46188266 33.20075215 34 37 C36.53464046 38.59151843 39.11769055 39.27341783 42 40 C42.66 40.33 43.32 40.66 44 41 C43.835 41.845625 43.67 42.69125 43.5 43.5625 C42.874573 47.0012552 42.874573 47.0012552 43.25 50.5 C42.91125647 55.24240949 41.26457297 56.65381271 38 60 C36.62437146 58.71034824 35.29233607 57.37310707 34 56 C34 55.34 34 54.68 34 54 C31.36 54.33 28.72 54.66 26 55 C25.875 49.25 25.875 49.25 27 47 C27.99 47 28.98 47 30 47 C30 46.34 30 45.68 30 45 C28.88625 44.731875 27.7725 44.46375 26.625 44.1875 C23 43 23 43 21 40 C20.95834635 38.33385392 20.95834635 36.66614608 21 35 C20.67 34.01 20.34 33.02 20 32 C19.01 32.66 18.02 33.32 17 34 C17 35.32 17 36.64 17 38 C15.1875 37.875 15.1875 37.875 13 37 C11.9349985 35.03384339 10.93166826 33.03273074 10 31 C9.34 30.67 8.68 30.34 8 30 C7.8865625 30.57621094 7.773125 31.15242188 7.65625 31.74609375 C6.93895508 34.20966024 5.91416152 35.92892492 4.5 38.0625 C2.91925755 40.45658958 1.91813468 42.24559596 1 45 C2.98 44.505 2.98 44.505 5 44 C4.67 45.98 4.34 47.96 4 50 C2.824375 50.1546875 2.824375 50.1546875 1.625 50.3125 C-1.33045181 50.77595022 -1.33045181 50.77595022 -3 54 C-5.625 54.6875 -5.625 54.6875 -8 55 C-11.25332466 50.73001139 -12.34086008 48.34014132 -12 43 C-12.291224 41.32546201 -12.61070799 39.65449105 -13 38 C-13.9075 38.2475 -14.815 38.495 -15.75 38.75 C-19 39 -19 39 -21.4375 37.5 C-23 35 -23 35 -22.875 31.5 C-22.15639488 28.62557952 -21.33665301 26.58419583 -20 24 C-20 22.68 -20 21.36 -20 20 C-19.34 19.67 -18.68 19.34 -18 19 C-18.66 18.67 -19.32 18.34 -20 18 C-19.6875 16.125 -19.6875 16.125 -19 14 C-18.01 13.34 -17.02 12.68 -16 12 C-15.67 12.99 -15.34 13.98 -15 15 C-14.773125 14.2575 -14.54625 13.515 -14.3125 12.75 C-12.64631496 9.25894564 -11.40015363 7.88093605 -8 6 C-4.92058535 5.96899918 -2.01450208 6.39578607 1 7 C1.33 6.01 1.66 5.02 2 4 C1.01 3.67 0.02 3.34 -1 3 C-0.67 2.01 -0.34 1.02 0 0 Z M35 15 C35.99 15.495 35.99 15.495 37 16 C37.33 16.99 37.66 17.98 38 19 C38.33 18.34 38.66 17.68 39 17 C38.67 16.34 38.34 15.68 38 15 C37.01 15 36.02 15 35 15 Z M34 22 C35 24 35 24 35 24 Z M28 31 C26.515 34.465 26.515 34.465 25 38 C27.03241727 37.36020151 27.03241727 37.36020151 29 36 C29.81171228 33.44480079 29.81171228 33.44480079 30 31 C29.34 31 28.68 31 28 31 Z M33 40 C32.67 40.66 32.34 41.32 32 42 C32.66 42.66 33.32 43.32 34 44 C34.33 43.01 34.66 42.02 35 41 C34.34 40.67 33.68 40.34 33 40 Z " fill="#398B47" transform="translate(130,162)"/>
<path d="M0 0 C0.86689453 0.00064453 1.73378906 0.00128906 2.62695312 0.00195312 C9.03111434 0.04680717 9.03111434 0.04680717 11.3125 1.1875 C11.3125 2.1775 11.3125 3.1675 11.3125 4.1875 C10.6525 4.1875 9.9925 4.1875 9.3125 4.1875 C8.6525 6.1675 7.9925 8.1475 7.3125 10.1875 C7.9725 10.1875 8.6325 10.1875 9.3125 10.1875 C8.9825 11.1775 8.6525 12.1675 8.3125 13.1875 C7.384375 12.960625 6.45625 12.73375 5.5 12.5 C4.448125 12.396875 3.39625 12.29375 2.3125 12.1875 C0.68735532 13.64583358 0.68735532 13.64583358 -0.6875 15.1875 C-2.875 14.875 -2.875 14.875 -4.6875 14.1875 C-4.6875 11.5475 -4.6875 8.9075 -4.6875 6.1875 C-6.0075 6.5175 -7.3275 6.8475 -8.6875 7.1875 C-7.6975 7.8475 -6.7075 8.5075 -5.6875 9.1875 C-5.6875 10.1775 -5.6875 11.1675 -5.6875 12.1875 C-6.3475 12.1875 -7.0075 12.1875 -7.6875 12.1875 C-6.6975 15.1575 -5.7075 18.1275 -4.6875 21.1875 C-5.32558594 21.45304687 -5.96367188 21.71859375 -6.62109375 21.9921875 C-7.44738281 22.34539062 -8.27367187 22.69859375 -9.125 23.0625 C-9.94871094 23.41054687 -10.77242187 23.75859375 -11.62109375 24.1171875 C-13.84496715 25.0119937 -13.84496715 25.0119937 -14.6875 27.1875 C-15.3475 27.1875 -16.0075 27.1875 -16.6875 27.1875 C-16.3575 28.5075 -16.0275 29.8275 -15.6875 31.1875 C-15.06875 31.27 -14.45 31.3525 -13.8125 31.4375 C-11.6875 32.1875 -11.6875 32.1875 -10.6875 34.0625 C-10.1925 35.114375 -10.1925 35.114375 -9.6875 36.1875 C-8.36357028 37.19991685 -7.03150833 38.20189389 -5.6875 39.1875 C-5.6875 39.8475 -5.6875 40.5075 -5.6875 41.1875 C-4.0375 41.5175 -2.3875 41.8475 -0.6875 42.1875 C-1.0175 45.1575 -1.3475 48.1275 -1.6875 51.1875 C-2.6775 51.5175 -3.6675 51.8475 -4.6875 52.1875 C-5.73771103 54.03721696 -5.73771103 54.03721696 -6.6875 56.1875 C-7.22375 56.80625 -7.76 57.425 -8.3125 58.0625 C-10.12687089 60.86652774 -9.9105809 62.91564677 -9.6875 66.1875 C-12.55474686 65.61405063 -13.5489515 65.3260485 -15.6875 63.1875 C-16.03800816 59.64692391 -16.13104185 56.12578742 -16.24609375 52.5703125 C-16.70841038 49.02724879 -17.42279532 47.82564003 -19.6875 45.1875 C-19.72915365 43.52135392 -19.72915365 41.85364608 -19.6875 40.1875 C-20.17132093 37.88613938 -20.17132093 37.88613938 -21.6875 36.1875 C-24.74658413 35.37165432 -24.74658413 35.37165432 -27.6875 35.1875 C-28.1825 33.7025 -28.1825 33.7025 -28.6875 32.1875 C-29.6775 31.8575 -30.6675 31.5275 -31.6875 31.1875 C-34.22737772 27.71187786 -33.6875 24.34394476 -33.6875 20.1875 C-34.56814927 17.83380193 -34.56814927 17.83380193 -35.6875 16.1875 C-38.3275 16.8475 -40.9675 17.5075 -43.6875 18.1875 C-43.6875 16.2075 -43.6875 14.2275 -43.6875 12.1875 C-42.6975 11.8575 -41.7075 11.5275 -40.6875 11.1875 C-40.3575 10.1975 -40.0275 9.2075 -39.6875 8.1875 C-36.36717257 7.53963123 -33.51907795 7.19636432 -30.125 7.375 C-25.91745692 7.14549765 -24.86559836 5.80943114 -21.6875 3.1875 C-19.36718195 2.77315749 -17.03110915 2.43860098 -14.6875 2.1875 C-13.99011719 1.85363281 -13.29273437 1.51976562 -12.57421875 1.17578125 C-8.38260343 -0.25923725 -4.39650183 -0.06294916 0 0 Z M-16.6875 13.1875 C-17.0175 13.8475 -17.3475 14.5075 -17.6875 15.1875 C-16.6975 15.1875 -15.7075 15.1875 -14.6875 15.1875 C-14.6875 14.5275 -14.6875 13.8675 -14.6875 13.1875 C-15.3475 13.1875 -16.0075 13.1875 -16.6875 13.1875 Z M-22.6875 29.1875 C-22.6875 30.1775 -22.6875 31.1675 -22.6875 32.1875 C-21.6975 31.8575 -20.7075 31.5275 -19.6875 31.1875 C-19.6875 30.5275 -19.6875 29.8675 -19.6875 29.1875 C-20.6775 29.1875 -21.6675 29.1875 -22.6875 29.1875 Z M-19.6875 33.1875 C-19.3575 34.1775 -19.0275 35.1675 -18.6875 36.1875 C-18.0275 35.8575 -17.3675 35.5275 -16.6875 35.1875 C-17.0175 34.5275 -17.3475 33.8675 -17.6875 33.1875 C-18.3475 33.1875 -19.0075 33.1875 -19.6875 33.1875 Z " fill="#3F8D4D" transform="translate(102.6875,160.8125)"/>
<path d="M0 0 C7.10249757 -0.02290307 14.20486803 -0.04283197 21.30737305 -0.05493164 C23.72567172 -0.05997349 26.14396733 -0.06680678 28.56225586 -0.07543945 C32.02979283 -0.08751157 35.49728966 -0.09322963 38.96484375 -0.09765625 C40.05337143 -0.10281754 41.14189911 -0.10797882 42.26341248 -0.11329651 C43.76485558 -0.11340981 43.76485558 -0.11340981 45.29663086 -0.11352539 C46.62566689 -0.11685631 46.62566689 -0.11685631 47.98155212 -0.12025452 C50 0 50 0 51 1 C51.14115161 3.67058851 51.04247107 6.32432238 51 9 C48.36 9 45.72 9 43 9 C43.00523682 9.7520874 43.01047363 10.5041748 43.01586914 11.27905273 C43.03657227 14.66519342 43.04963877 18.05132084 43.0625 21.4375 C43.07087891 22.62150391 43.07925781 23.80550781 43.08789062 25.02539062 C43.09111328 26.15009766 43.09433594 27.27480469 43.09765625 28.43359375 C43.10289307 29.47572021 43.10812988 30.51784668 43.11352539 31.59155273 C43 34 43 34 42 35 C38.37 35 34.74 35 31 35 C31 26.42 31 17.84 31 9 C24.73 9 18.46 9 12 9 C12 9.99 12 10.98 12 12 C13.299375 11.979375 14.59875 11.95875 15.9375 11.9375 C17.29165633 11.91600546 18.64756083 11.92851801 20 12 C21 13 21 13 21.125 16.5 C21 20 21 20 20 21 C17.32941149 21.14115161 14.67567762 21.04247107 12 21 C12 22.32 12 23.64 12 25 C15.3 25 18.6 25 22 25 C23.03595522 29.02871475 22.86988854 30.65055731 22 35 C14.74 35 7.48 35 0 35 C0 23.45 0 11.9 0 0 Z " fill="#479253" transform="translate(503,176)"/>
<path d="M0 0 C3.63 0 7.26 0 11 0 C11.33 8.25 11.66 16.5 12 25 C14.97 25 17.94 25 21 25 C21.66 25.99 22.32 26.98 23 28 C23.67095703 26.35064453 23.67095703 26.35064453 24.35546875 24.66796875 C27.74469562 16.36826237 31.19427618 8.12004668 35 0 C37.31 0 39.62 0 42 0 C42.21092285 0.50748779 42.4218457 1.01497559 42.63916016 1.5378418 C43.63187699 3.92213972 44.62782599 6.30506263 45.625 8.6875 C45.98529297 9.54859375 46.34558594 10.4096875 46.71679688 11.296875 C49.31051379 17.45752649 52.05373438 23.51515394 54.96875 29.53125 C56 32 56 32 56 35 C54.20906809 35.08086147 52.41710372 35.13912702 50.625 35.1875 C49.12839844 35.23970703 49.12839844 35.23970703 47.6015625 35.29296875 C46.74304688 35.19628906 45.88453125 35.09960938 45 35 C44.34 34.01 43.68 33.02 43 32 C40.57478506 31.41810734 40.57478506 31.41810734 37.875 31.3125 C36.96492188 31.24675781 36.05484375 31.18101562 35.1171875 31.11328125 C34.41851562 31.07589844 33.71984375 31.03851563 33 31 C32.67 32.32 32.34 33.64 32 35 C21.44 35 10.88 35 0 35 C0 23.45 0 11.9 0 0 Z M38 19 C37.67 20.32 37.34 21.64 37 23 C37.99 23 38.98 23 40 23 C39.34 21.68 38.68 20.36 38 19 Z " fill="#358A44" transform="translate(410,176)"/>
<path d="M0 0 C8 0 8 0 9.79443359 1.16162109 C10.15875488 1.69352051 10.52307617 2.22541992 10.8984375 2.7734375 C11.31480469 3.3509375 11.73117188 3.9284375 12.16015625 4.5234375 C12.56105469 5.13445312 12.96195313 5.74546875 13.375 6.375 C14.21557615 7.57071319 15.0566998 8.76604172 15.8984375 9.9609375 C16.59195313 10.96382812 17.28546875 11.96671875 18 13 C18.66 13.66 19.32 14.32 20 15 C21.48075386 12.87609042 22.95966056 10.75093595 24.4375 8.625 C24.85837891 8.02171875 25.27925781 7.4184375 25.71289062 6.796875 C28.0220743 3.49925179 28.0220743 3.49925179 30 0 C32.97 0 35.94 0 39 0 C39.0246519 4.82380802 39.04283693 9.64757967 39.05493164 14.47143555 C39.05997174 16.11369464 39.06680378 17.75594923 39.07543945 19.39819336 C39.08751926 21.75375479 39.09323139 24.10925709 39.09765625 26.46484375 C39.10281754 27.20339096 39.10797882 27.94193817 39.11329651 28.7028656 C39.1134925 30.46898088 39.06194719 32.23497146 39 34 C38 35 38 35 35.75 35.1328125 C34.8425 35.13023437 33.935 35.12765625 33 35.125 C31.63875 35.12886719 31.63875 35.12886719 30.25 35.1328125 C28 35 28 35 27 34 C26.76712992 32.31816052 26.58735834 30.6287584 26.4375 28.9375 C26.31181641 27.55884766 26.31181641 27.55884766 26.18359375 26.15234375 C26.12300781 25.44207031 26.06242187 24.73179687 26 24 C25.443125 24.99 24.88625 25.98 24.3125 27 C22 30 22 30 19.5625 30.75 C15.66863305 29.61033162 14.36489829 27.24328908 12 24 C11.67 27.63 11.34 31.26 11 35 C7.37 35 3.74 35 0 35 C0 23.45 0 11.9 0 0 Z " fill="#3E8D4C" transform="translate(194,176)"/>
<path d="M0 0 C6.19153254 0.10247034 10.80270401 0.52303036 15.62353516 4.76220703 C19.83330416 9.63431302 20.59610173 13.76893109 20.36962891 20.06298828 C19.780727 25.07683367 17.82547031 27.73680794 14.27587891 31.20751953 C8.26496586 35.45051698 2.88533765 35.75334328 -4.22412109 35.64501953 C-5.0471875 35.644375 -5.87025391 35.64373047 -6.71826172 35.64306641 C-12.77098312 35.59815751 -12.77098312 35.59815751 -13.91162109 34.45751953 C-14.01244873 32.02091508 -14.05134713 29.61327252 -14.04443359 27.17626953 C-14.04539032 26.44758667 -14.04634705 25.71890381 -14.04733276 24.96813965 C-14.04801445 23.42472243 -14.04616097 21.88130236 -14.04199219 20.33789062 C-14.03664372 17.96754553 -14.04193751 15.59738994 -14.04833984 13.22705078 C-14.04767906 11.73095661 -14.04639789 10.23486256 -14.04443359 8.73876953 C-14.04645782 8.02523315 -14.04848206 7.31169678 -14.05056763 6.57653809 C-14.00787046 -2.32793473 -7.48242499 0.05144716 0 0 Z M-1.91162109 9.45751953 C-1.93854594 11.74912272 -1.95798233 14.040815 -1.97412109 16.33251953 C-1.98572266 17.60869141 -1.99732422 18.88486328 -2.00927734 20.19970703 C-2.14338678 23.34416605 -2.14338678 23.34416605 -0.91162109 25.45751953 C4.49625275 24.35965528 4.49625275 24.35965528 8.08837891 20.45751953 C8.4334411 17.2139349 8.39371526 15.12207512 7.02587891 12.14501953 C4.25311475 9.73003139 1.67635443 9.72831014 -1.91162109 9.45751953 Z " fill="#3B8C48" transform="translate(275.91162109375,175.54248046875)"/>
<path d="M0 0 C2.31 0 4.62 0 7 0 C7.2475 0.61875 7.495 1.2375 7.75 1.875 C8.80484717 4.11387664 8.80484717 4.11387664 10.84375 4.90625 C14.59177108 6.80742011 17.10485405 9.99350228 20 13 C20.33 8.71 20.66 4.42 21 0 C24.63 0 28.26 0 32 0 C32 11.55 32 23.1 32 35 C25 35 25 35 23.01196289 33.80664062 C22.5039917 33.26201172 21.99602051 32.71738281 21.47265625 32.15625 C20.90869141 31.56972656 20.34472656 30.98320312 19.76367188 30.37890625 C19.20228516 29.75886719 18.64089844 29.13882813 18.0625 28.5 C17.47404297 27.87996094 16.88558594 27.25992188 16.27929688 26.62109375 C14.83643008 25.09611259 13.41590672 23.55004525 12 22 C11.67 26.29 11.34 30.58 11 35 C7.37 35 3.74 35 0 35 C0 23.45 0 11.9 0 0 Z " fill="#438F51" transform="translate(467,176)"/>
<path d="M0 0 C1.41152344 0.11794922 1.41152344 0.11794922 2.8515625 0.23828125 C5.375 0.6875 5.375 0.6875 8.375 2.6875 C8.045 6.3175 7.715 9.9475 7.375 13.6875 C5.725 13.0275 4.075 12.3675 2.375 11.6875 C-1.88927786 11.15641778 -4.9542724 11.24034826 -8.625 13.6875 C-9.01647444 16.77036123 -9.25643447 18.74080583 -8.625 21.6875 C-6.66223095 23.96558606 -6.66223095 23.96558606 -3.625 24.6875 C1.43193194 24.50988846 1.43193194 24.50988846 5.375 21.6875 C6.365 21.6875 7.355 21.6875 8.375 21.6875 C8.65830492 25.39564667 8.79053525 28.98595576 8.375 32.6875 C5.39968381 35.95075001 1.14850174 36.46785796 -3.15234375 36.8125 C-8.38158044 36.5481468 -13.26974702 34.65204513 -17.296875 31.29296875 C-21.31794167 26.81066208 -22.88939163 22.24097381 -22.625 16.3125 C-21.72597924 9.9765442 -18.06678905 5.53373075 -13.0625 1.75 C-8.63721771 -0.1789692 -4.77837145 -0.44097918 0 0 Z " fill="#428E50" transform="translate(335.625,175.3125)"/>
<path d="M0 0 C3.2175 -0.04125 6.435 -0.0825 9.75 -0.125 C11.26158691 -0.15231201 11.26158691 -0.15231201 12.80371094 -0.18017578 C13.60583008 -0.1851709 14.40794922 -0.19016602 15.234375 -0.1953125 C16.05131836 -0.20578613 16.86826172 -0.21625977 17.70996094 -0.22705078 C21.77074605 0.17556437 23.61324034 1.5487804 26.25 4.625 C28.28416581 8.54803405 29.12056299 11.71549443 28 16 C25.90727693 19.3177317 23.54081384 22.22959308 20 24 C16.99525503 24.13559318 14.00931153 24.04299016 11 24 C11 27.63 11 31.26 11 35 C7.37 35 3.74 35 0 35 C0 23.45 0 11.9 0 0 Z M11 9 C11 10.65 11 12.3 11 14 C12.32 14.33 13.64 14.66 15 15 C15.33 13.35 15.66 11.7 16 10 C14.35 9.67 12.7 9.34 11 9 Z " fill="#428E50" transform="translate(380,176)"/>
<path d="M0 0 C2.31 0 4.62 0 7 0 C9.51474571 4.94277606 11.84692049 9.88643618 14 15 C14.66490857 16.47995779 15.33167417 17.95908225 16 19.4375 C21 30.6875 21 30.6875 21 35 C19.20906809 35.08086147 17.41710372 35.13912702 15.625 35.1875 C14.12839844 35.23970703 14.12839844 35.23970703 12.6015625 35.29296875 C11.74304688 35.19628906 10.88453125 35.09960938 10 35 C9.34 34.01 8.68 33.02 8 32 C5.86746355 31.52312697 5.86746355 31.52312697 3.5 31.625 C2.7059375 31.61726563 1.911875 31.60953125 1.09375 31.6015625 C0.05734375 31.79878906 0.05734375 31.79878906 -1 32 C-1.66 32.99 -2.32 33.98 -3 35 C-5.3828125 35.29296875 -5.3828125 35.29296875 -8.125 35.1875 C-9.49011719 35.14689453 -9.49011719 35.14689453 -10.8828125 35.10546875 C-11.58148438 35.07066406 -12.28015625 35.03585938 -13 35 C-14 32 -14 32 -13.328125 30.203125 C-12.97234375 29.55859375 -12.6165625 28.9140625 -12.25 28.25 C-8.72569565 21.78000843 -6.10684706 14.87043949 -3.3125 8.0625 C-2.99216797 7.28326172 -2.67183594 6.50402344 -2.34179688 5.70117188 C-1.5607332 3.8009722 -0.78030066 1.90051312 0 0 Z M3 19 C2.67 20.32 2.34 21.64 2 23 C2.99 23 3.98 23 5 23 C4.34 21.68 3.68 20.36 3 19 Z " fill="#3E8C4C" transform="translate(358,176)"/>
<path d="M0 0 C7.26 0 14.52 0 22 0 C22 2.97 22 5.94 22 9 C18.37 9 14.74 9 11 9 C11 9.99 11 10.98 11 12 C14.3 12 17.6 12 21 12 C21 14.97 21 17.94 21 21 C17.7 21 14.4 21 11 21 C11 22.32 11 23.64 11 25 C14.63 25 18.26 25 22 25 C22 28.3 22 31.6 22 35 C14.74 35 7.48 35 0 35 C0 23.45 0 11.9 0 0 Z " fill="#3C8D4A" transform="translate(237,176)"/>
<path d="M0 0 C3.63 0 7.26 0 11 0 C11.33 8.25 11.66 16.5 12 25 C14.97 25 17.94 25 21 25 C24 28 24 28 24.1875 30.6875 C24.0946875 31.8321875 24.0946875 31.8321875 24 33 C28.41522109 31.73025028 28.41522109 31.73025028 32 29 C36.93935978 27.79669821 41.47488072 27.3946283 46 30 C46.66 30.66 47.32 31.32 48 32 C50.68839385 32.26991906 53.29141936 32.08737357 56 32 C56 32.99 56 33.98 56 35 C54.20906809 35.08086147 52.41710372 35.13912702 50.625 35.1875 C49.12839844 35.23970703 49.12839844 35.23970703 47.6015625 35.29296875 C46.74304688 35.19628906 45.88453125 35.09960938 45 35 C44.34 34.01 43.68 33.02 43 32 C40.57478506 31.41810734 40.57478506 31.41810734 37.875 31.3125 C36.96492188 31.24675781 36.05484375 31.18101562 35.1171875 31.11328125 C34.41851562 31.07589844 33.71984375 31.03851563 33 31 C32.67 32.32 32.34 33.64 32 35 C21.44 35 10.88 35 0 35 C0 23.45 0 11.9 0 0 Z " fill="#3D8C4C" transform="translate(410,176)"/>
<path d="M0 0 C0.86689453 0.00064453 1.73378906 0.00128906 2.62695312 0.00195312 C9.03111434 0.04680717 9.03111434 0.04680717 11.3125 1.1875 C11.3125 2.1775 11.3125 3.1675 11.3125 4.1875 C10.6525 4.1875 9.9925 4.1875 9.3125 4.1875 C8.6525 6.1675 7.9925 8.1475 7.3125 10.1875 C7.9725 10.1875 8.6325 10.1875 9.3125 10.1875 C8.9825 11.1775 8.6525 12.1675 8.3125 13.1875 C7.384375 12.960625 6.45625 12.73375 5.5 12.5 C4.448125 12.396875 3.39625 12.29375 2.3125 12.1875 C0.68735532 13.64583358 0.68735532 13.64583358 -0.6875 15.1875 C-2.875 14.875 -2.875 14.875 -4.6875 14.1875 C-4.6875 11.5475 -4.6875 8.9075 -4.6875 6.1875 C-6.0075 6.5175 -7.3275 6.8475 -8.6875 7.1875 C-7.6975 7.8475 -6.7075 8.5075 -5.6875 9.1875 C-5.6875 10.1775 -5.6875 11.1675 -5.6875 12.1875 C-6.3475 12.1875 -7.0075 12.1875 -7.6875 12.1875 C-6.6975 15.1575 -5.7075 18.1275 -4.6875 21.1875 C-5.31398437 21.45304687 -5.94046875 21.71859375 -6.5859375 21.9921875 C-7.40320313 22.34539062 -8.22046875 22.69859375 -9.0625 23.0625 C-9.87460938 23.41054687 -10.68671875 23.75859375 -11.5234375 24.1171875 C-13.82552299 25.11196067 -13.82552299 25.11196067 -15.6875 27.1875 C-15.97625 26.218125 -16.265 25.24875 -16.5625 24.25 C-17.32964682 21.08085797 -17.32964682 21.08085797 -19.6875 20.1875 C-18.3675 19.8575 -17.0475 19.5275 -15.6875 19.1875 C-18.17814888 18.50042445 -20.06636292 18.1875 -22.6875 18.1875 C-22.3575 17.5275 -22.0275 16.8675 -21.6875 16.1875 C-21.0275 16.1875 -20.3675 16.1875 -19.6875 16.1875 C-19.3575 14.8675 -19.0275 13.5475 -18.6875 12.1875 C-17.3675 12.5175 -16.0475 12.8475 -14.6875 13.1875 C-15.6775 13.6825 -15.6775 13.6825 -16.6875 14.1875 C-15.3675 14.5175 -14.0475 14.8475 -12.6875 15.1875 C-12.3575 14.1975 -12.0275 13.2075 -11.6875 12.1875 C-12.3475 11.5275 -13.0075 10.8675 -13.6875 10.1875 C-14.3475 9.5275 -15.0075 8.8675 -15.6875 8.1875 C-15.6875 8.8475 -15.6875 9.5075 -15.6875 10.1875 C-16.3475 9.8575 -17.0075 9.5275 -17.6875 9.1875 C-17.3575 8.5275 -17.0275 7.8675 -16.6875 7.1875 C-18.9975 7.1875 -21.3075 7.1875 -23.6875 7.1875 C-24.0175 7.8475 -24.3475 8.5075 -24.6875 9.1875 C-29.3075 9.1875 -33.9275 9.1875 -38.6875 9.1875 C-39.3475 10.8375 -40.0075 12.4875 -40.6875 14.1875 C-39.3675 14.8475 -38.0475 15.5075 -36.6875 16.1875 C-38.9975 16.8475 -41.3075 17.5075 -43.6875 18.1875 C-43.6875 16.2075 -43.6875 14.2275 -43.6875 12.1875 C-42.6975 11.8575 -41.7075 11.5275 -40.6875 11.1875 C-40.3575 10.1975 -40.0275 9.2075 -39.6875 8.1875 C-36.36717257 7.53963123 -33.51907795 7.19636432 -30.125 7.375 C-25.91745692 7.14549765 -24.86559836 5.80943114 -21.6875 3.1875 C-19.36718195 2.77315749 -17.03110915 2.43860098 -14.6875 2.1875 C-13.99011719 1.85363281 -13.29273437 1.51976562 -12.57421875 1.17578125 C-8.38260343 -0.25923725 -4.39650183 -0.06294916 0 0 Z " fill="#50945D" transform="translate(102.6875,160.8125)"/>
<path d="M0 0 C2.66673742 -0.02727345 5.33318869 -0.04696948 8 -0.0625 C8.74378906 -0.07087891 9.48757813 -0.07925781 10.25390625 -0.08789062 C15.26148844 -0.10966272 20.04279032 0.28458451 25 1 C25.042721 2.66611905 25.04063832 4.33382885 25 6 C24 7 24 7 20.9375 7.0625 C19.968125 7.041875 18.99875 7.02125 18 7 C18.01160156 7.77601563 18.02320313 8.55203125 18.03515625 9.3515625 C18.10418029 17.61472608 17.69121931 25.76708427 17 34 C14.03 34 11.06 34 8 34 C8 25.42 8 16.84 8 8 C5.36 8 2.72 8 0 8 C0 5.36 0 2.72 0 0 Z " fill="#368845" transform="translate(527,176)"/>
<path d="M0 0 C1.81242052 -0.02687279 3.62495233 -0.04633715 5.4375 -0.0625 C6.44683594 -0.07410156 7.45617187 -0.08570313 8.49609375 -0.09765625 C11 0 11 0 12 1 C12.10081087 3.35231699 12.13972939 5.67461947 12.1328125 8.02734375 C12.13376923 8.73145889 12.13472595 9.43557404 12.13571167 10.161026 C12.13639341 11.65316863 12.13453952 13.14531421 12.13037109 14.63745117 C12.12503063 16.92438418 12.1303121 19.21112008 12.13671875 21.49804688 C12.13605781 22.94531293 12.13477632 24.39257887 12.1328125 25.83984375 C12.13483673 26.52634506 12.13686096 27.21284637 12.13894653 27.92015076 C12.11495764 32.77008473 12.11495764 32.77008473 11 35 C9.35425434 35.02688151 7.70838587 35.04634123 6.0625 35.0625 C5.14597656 35.07410156 4.22945313 35.08570313 3.28515625 35.09765625 C1 35 1 35 0 34 C-0.08847743 31.47905924 -0.11527301 28.98569107 -0.09765625 26.46484375 C-0.0962413 25.71159317 -0.09482635 24.95834259 -0.09336853 24.18226624 C-0.08775376 21.7673044 -0.07519883 19.35243399 -0.0625 16.9375 C-0.0574869 15.30403779 -0.05292366 13.67057414 -0.04882812 12.03710938 C-0.03777954 8.02470415 -0.02050506 4.01236759 0 0 Z " fill="#3D8B4B" transform="translate(299,176)"/>
<path d="M0 0 C0.2475 0.639375 0.495 1.27875 0.75 1.9375 C1.78813195 4.19635114 1.78813195 4.19635114 4 4.5 C4.66 4.665 5.32 4.83 6 5 C6.70151152 6.3153341 7.36525925 7.65117592 8 9 C9.32392972 10.01241685 10.65599167 11.01439389 12 12 C12 12.66 12 13.32 12 14 C14.475 14.495 14.475 14.495 17 15 C16.67 17.97 16.34 20.94 16 24 C15.01 24.33 14.02 24.66 13 25 C11.94978897 26.84971696 11.94978897 26.84971696 11 29 C10.195625 29.928125 10.195625 29.928125 9.375 30.875 C7.56062911 33.67902774 7.7769191 35.72814677 8 39 C5.13275314 38.42655063 4.1385485 38.1385485 2 36 C1.64949184 32.45942391 1.55645815 28.93828742 1.44140625 25.3828125 C0.97908962 21.83974879 0.26470468 20.63814003 -2 18 C-2.04165365 16.33385392 -2.04165365 14.66614608 -2 13 C-2.63359102 10.73161963 -2.63359102 10.73161963 -4 9 C-6.05000871 8.19471111 -6.05000871 8.19471111 -8 8 C-7.38125 7.938125 -6.7625 7.87625 -6.125 7.8125 C-3.72238859 7.171081 -3.72238859 7.171081 -2.75 4.4375 C-2.5025 3.633125 -2.255 2.82875 -2 2 C-3.32 2.33 -4.64 2.66 -6 3 C-6 2.34 -6 1.68 -6 1 C-4.7934375 1.0309375 -4.7934375 1.0309375 -3.5625 1.0625 C-1.06645115 1.29633621 -1.06645115 1.29633621 0 0 Z M-2 6 C-1.67 6.99 -1.34 7.98 -1 9 C-0.34 8.67 0.32 8.34 1 8 C0.67 7.34 0.34 6.68 0 6 C-0.66 6 -1.32 6 -2 6 Z " fill="#3D8C4C" transform="translate(85,188)"/>
<path d="M0 0 C3.3 0 6.6 0 10 0 C10 11.55 10 23.1 10 35 C7.69 35 5.38 35 3 35 C1.04421883 32.60259082 0 31.12413392 0 28 C-0.433125 27.5875 -0.86625 27.175 -1.3125 26.75 C-3.87320251 24.09445665 -6 20.7633483 -6 17 C-6.66 17 -7.32 17 -8 17 C-7.505 15.515 -7.505 15.515 -7 14 C-4.69 14.66 -2.38 15.32 0 16 C0 10.72 0 5.44 0 0 Z " fill="#408E4E" transform="translate(489,176)"/>
<path d="M0 0 C1.98 0 3.96 0 6 0 C6 0.99 6 1.98 6 3 C6.66 3 7.32 3 8 3 C8 3.99 8 4.98 8 6 C10.0399719 4.63676257 10.0399719 4.63676257 12 3 C12 2.34 12 1.68 12 1 C17.52 1.75272727 17.52 1.75272727 20.0625 3.0625 C23.56104163 4.75534272 26.40900973 4.19699676 30 3 C30.99 3.33 31.98 3.66 33 4 C33 4.66 33 5.32 33 6 C33.69867188 6.04898438 34.39734375 6.09796875 35.1171875 6.1484375 C36.48230469 6.26058594 36.48230469 6.26058594 37.875 6.375 C38.77992188 6.44460937 39.68484375 6.51421875 40.6171875 6.5859375 C43 7 43 7 45 9 C41.04 9 37.08 9 33 9 C33 8.34 33 7.68 33 7 C30.72926348 6.83201949 28.45840707 6.66565887 26.1875 6.5 C24.92292969 6.4071875 23.65835938 6.314375 22.35546875 6.21875 C17.08362332 5.85321924 17.08362332 5.85321924 12 7 C11.67 7.99 11.34 8.98 11 10 C7.71303767 10.79953138 6.28976808 11.09658936 3 10 C0.99124558 10.27571139 -1.01178687 10.60235737 -3 11 C-3 10.34 -3 9.68 -3 9 C-4.98 9 -6.96 9 -9 9 C-10.4606285 11.64738916 -11 12.89448334 -11 16 C-13 18.1875 -13 18.1875 -15 20 C-12.9254644 21.2236068 -12.9254644 21.2236068 -10 21 C-9.67 21.99 -9.34 22.98 -9 24 C-6.69 24 -4.38 24 -2 24 C-4.46328998 26.46328998 -5.47497831 26.3254065 -8.875 26.5625 C-12.0355005 26.79364108 -14.94588748 27.14058694 -18 28 C-18.72256829 32.48133574 -18.72256829 32.48133574 -19 37 C-16.98177083 36.90234375 -14.96354167 36.8046875 -12.9453125 36.70703125 C-12.30335937 36.80371094 -11.66140625 36.90039062 -11 37 C-8.64880601 40.52679099 -8.78556548 42.02879485 -8.875 46.1875 C-8.89304687 47.27417969 -8.91109375 48.36085937 -8.9296875 49.48046875 C-8.96449219 50.72763672 -8.96449219 50.72763672 -9 52 C-7.02 52.33 -5.04 52.66 -3 53 C-4.32 53.66 -5.64 54.32 -7 55 C-10.07943151 52.94704566 -10.79293121 52.34265205 -12 49 C-12.04254356 47.00045254 -12.04080783 44.99958364 -12 43 C-12.291224 41.32546201 -12.61070799 39.65449105 -13 38 C-13.9075 38.2475 -14.815 38.495 -15.75 38.75 C-19 39 -19 39 -21.4375 37.5 C-23 35 -23 35 -22.875 31.5 C-22.15639488 28.62557952 -21.33665301 26.58419583 -20 24 C-20 22.68 -20 21.36 -20 20 C-19.34 19.67 -18.68 19.34 -18 19 C-18.66 18.67 -19.32 18.34 -20 18 C-19.6875 16.125 -19.6875 16.125 -19 14 C-18.01 13.34 -17.02 12.68 -16 12 C-15.67 12.99 -15.34 13.98 -15 15 C-14.773125 14.2575 -14.54625 13.515 -14.3125 12.75 C-12.64631496 9.25894564 -11.40015363 7.88093605 -8 6 C-4.92058535 5.96899918 -2.01450208 6.39578607 1 7 C1.33 6.01 1.66 5.02 2 4 C1.01 3.67 0.02 3.34 -1 3 C-0.67 2.01 -0.34 1.02 0 0 Z " fill="#499158" transform="translate(130,162)"/>
<path d="M0 0 C2.97 0 5.94 0 9 0 C9 11.22 9 22.44 9 34 C2 34 2 34 0.09765625 32.8828125 C-1.45978828 30.21132402 -1.44776273 27.94699786 -1.5625 24.875 C-1.64514087 21.71796648 -1.64514087 21.71796648 -2 19 C-2.66 18.67 -3.32 18.34 -4 18 C-4.33 18.99 -4.66 19.98 -5 21 C-5.99 20.67 -6.98 20.34 -8 20 C-8 19.34 -8 18.68 -8 18 C-7.34 18 -6.68 18 -6 18 C-6.185625 17.401875 -6.37125 16.80375 -6.5625 16.1875 C-7 14 -7 14 -6 11 C-5.01 11 -4.02 11 -3 11 C-3 10.34 -3 9.68 -3 9 C-2.34 9 -1.68 9 -1 9 C-1.20625 8.2575 -1.4125 7.515 -1.625 6.75 C-2 4 -2 4 0 0 Z " fill="#358A44" transform="translate(224,176)"/>
<path d="M0 0 C1.09570312 0.00902344 2.19140625 0.01804688 3.3203125 0.02734375 C4.16335937 0.03894531 5.00640625 0.05054688 5.875 0.0625 C6.205 1.0525 6.535 2.0425 6.875 3.0625 C7.535 3.0625 8.195 3.0625 8.875 3.0625 C11.31759716 5.81042181 12.6330393 8.62322421 13.875 12.0625 C12.555 12.3925 11.235 12.7225 9.875 13.0625 C9.76779635 16.01137974 9.76779635 16.01137974 10.4375 18.625 C10.875 21.0625 10.875 21.0625 9.875 23.0625 C8.885 23.0625 7.895 23.0625 6.875 23.0625 C7.205 24.3825 7.535 25.7025 7.875 27.0625 C5.895 26.7325 3.915 26.4025 1.875 26.0625 C1.81441406 25.21945313 1.75382812 24.37640625 1.69140625 23.5078125 C1.60761719 22.41210938 1.52382812 21.31640625 1.4375 20.1875 C1.35628906 19.09695312 1.27507812 18.00640625 1.19140625 16.8828125 C1.04498297 14.11521029 1.04498297 14.11521029 -0.125 12.0625 C-2.02033342 11.59726937 -2.02033342 11.59726937 -4.1875 11.4375 C-5.486875 11.31375 -6.78625 11.19 -8.125 11.0625 C-9.25 4.4375 -9.25 4.4375 -8.125 1.0625 C-5.36047967 -0.31976016 -3.0788637 -0.03275387 0 0 Z " fill="#368A45" transform="translate(119.125,187.9375)"/>
<path d="M0 0 C0.33 0 0.66 0 1 0 C1 11.22 1 22.44 1 34 C3.97 34 6.94 34 10 34 C9.93039063 33.19175781 9.86078125 32.38351563 9.7890625 31.55078125 C9.35211935 22.92635567 9.35211935 22.92635567 11.3359375 20.08984375 C13 18.75 13 18.75 16 17 C14.68 15.68 13.36 14.36 12 13 C12.99 11.68 13.98 10.36 15 9 C16.98 11.97 16.98 11.97 19 15 C19.556875 14.278125 20.11375 13.55625 20.6875 12.8125 C22.97909334 10.02542701 25.41459857 7.51358472 28 5 C28.33 6.32 28.66 7.64 29 9 C28.34 9 27.68 9 27 9 C27 9.66 27 10.32 27 11 C26.01 11 25.02 11 24 11 C24 13.31 24 15.62 24 18 C23.34 18 22.68 18 22 18 C22.33 18.66 22.66 19.32 23 20 C23.66 20 24.32 20 25 20 C25.33 19.34 25.66 18.68 26 18 C26.99 18.33 27.98 18.66 29 19 C29 22.96 29 26.92 29 31 C29.99 31.33 30.98 31.66 32 32 C32 32.66 32 33.32 32 34 C33.98 34 35.96 34 38 34 C38 34.33 38 34.66 38 35 C36.35425434 35.02688151 34.70838587 35.04634123 33.0625 35.0625 C31.68771484 35.07990234 31.68771484 35.07990234 30.28515625 35.09765625 C28 35 28 35 27 34 C26.76712992 32.31816052 26.58735834 30.6287584 26.4375 28.9375 C26.31181641 27.55884766 26.31181641 27.55884766 26.18359375 26.15234375 C26.12300781 25.44207031 26.06242187 24.73179687 26 24 C25.443125 24.99 24.88625 25.98 24.3125 27 C22 30 22 30 19.5625 30.75 C15.66863305 29.61033162 14.36489829 27.24328908 12 24 C11.67 27.63 11.34 31.26 11 35 C7.37 35 3.74 35 0 35 C0 23.45 0 11.9 0 0 Z M12 15 C14 16 14 16 14 16 Z " fill="#41914E" transform="translate(194,176)"/>
<path d="M0 0 C0.165 1.258125 0.33 2.51625 0.5 3.8125 C1.15231124 6.52726591 1.45028959 7.65293707 3.84375 9.1640625 C5.88090471 9.89478104 7.90269628 10.47130469 10 11 C10.66 11.33 11.32 11.66 12 12 C11.835 12.845625 11.67 13.69125 11.5 14.5625 C10.874573 18.0012552 10.874573 18.0012552 11.25 21.5 C10.91125647 26.24240949 9.26457297 27.65381271 6 31 C4.62437146 29.71034824 3.29233607 28.37310707 2 27 C2 26.34 2 25.68 2 25 C-1.96 25.495 -1.96 25.495 -6 26 C-6.125 20.25 -6.125 20.25 -5 18 C-4.01 18 -3.02 18 -2 18 C-2 17.34 -2 16.68 -2 16 C-4.31 15.34 -6.62 14.68 -9 14 C-8.34 13.67 -7.68 13.34 -7 13 C-6.67 12.34 -6.34 11.68 -6 11 C-5.67 11.66 -5.34 12.32 -5 13 C-4.34 12.67 -3.68 12.34 -3 12 C-3.020625 10.906875 -3.04125 9.81375 -3.0625 8.6875 C-3 5 -3 5 -2 2 C-2.99 2.33 -3.98 2.66 -5 3 C-5 2.34 -5 1.68 -5 1 C-1.125 0 -1.125 0 0 0 Z M1 11 C0.67 11.66 0.34 12.32 0 13 C0.66 13.66 1.32 14.32 2 15 C2.33 14.01 2.66 13.02 3 12 C2.34 11.67 1.68 11.34 1 11 Z " fill="#4F945D" transform="translate(162,191)"/>
<path d="M0 0 C2.31 0 4.62 0 7 0 C7.69699552 1.45381897 8.38233866 2.91322953 9.0625 4.375 C9.63677734 5.59316406 9.63677734 5.59316406 10.22265625 6.8359375 C10.47917969 7.55007812 10.73570312 8.26421875 11 9 C10.67 9.66 10.34 10.32 10 11 C7.61744733 9.05063872 6.96258588 7.88308087 6 4.875 C5.67 3.92625 5.34 2.9775 5 2 C4.01 1.67 3.02 1.34 2 1 C2.01160156 1.61488281 2.02320313 2.22976562 2.03515625 2.86328125 C2.04869141 4.07564453 2.04869141 4.07564453 2.0625 5.3125 C2.07410156 6.11300781 2.08570313 6.91351563 2.09765625 7.73828125 C2 10 2 10 1 13 C1.33 13.66 1.66 14.32 2 15 C3.32 15 4.64 15 6 15 C6.66 15.66 7.32 16.32 8 17 C7.34 18.98 6.68 20.96 6 23 C2.66666667 23.66666667 -0.66666667 24.33333333 -4 25 C-4 24.01 -4 23.02 -4 22 C-5.32 22.33 -6.64 22.66 -8 23 C-8.12375 23.639375 -8.2475 24.27875 -8.375 24.9375 C-8.58125 25.618125 -8.7875 26.29875 -9 27 C-9.66 27.33 -10.32 27.66 -11 28 C-10.44030144 23.82770165 -9.48690425 20.41485726 -7.71484375 16.6015625 C-7.26689453 15.62832031 -6.81894531 14.65507812 -6.35742188 13.65234375 C-5.88884766 12.65332031 -5.42027344 11.65429688 -4.9375 10.625 C-4.46505859 9.60277344 -3.99261719 8.58054688 -3.50585938 7.52734375 C-2.34367781 5.01515329 -1.17490756 2.50625747 0 0 Z M3 19 C2.67 20.32 2.34 21.64 2 23 C2.99 23 3.98 23 5 23 C4.34 21.68 3.68 20.36 3 19 Z " fill="#408F4E" transform="translate(445,176)"/>
<path d="M0 0 C-0.66 1.32 -1.32 2.64 -2 4 C-0.35 4 1.3 4 3 4 C3.33 4.99 3.66 5.98 4 7 C6.31 7 8.62 7 11 7 C8.53671002 9.46328998 7.52502169 9.3254065 4.125 9.5625 C0.9644995 9.79364108 -1.94588748 10.14058694 -5 11 C-5.72256829 15.48133574 -5.72256829 15.48133574 -6 20 C-3.98177083 19.90234375 -1.96354167 19.8046875 0.0546875 19.70703125 C0.69664063 19.80371094 1.33859375 19.90039062 2 20 C4.35119399 23.52679099 4.21443452 25.02879485 4.125 29.1875 C4.10695313 30.27417969 4.08890625 31.36085937 4.0703125 32.48046875 C4.03550781 33.72763672 4.03550781 33.72763672 4 35 C5.98 35.33 7.96 35.66 10 36 C8.68 36.66 7.36 37.32 6 38 C2.92056849 35.94704566 2.20706879 35.34265205 1 32 C0.95745644 30.00045254 0.95919217 27.99958364 1 26 C0.708776 24.32546201 0.38929201 22.65449105 0 21 C-0.9075 21.2475 -1.815 21.495 -2.75 21.75 C-6 22 -6 22 -8.4375 20.5 C-10 18 -10 18 -9.875 14.5 C-9.15639488 11.62557952 -8.33665301 9.58419583 -7 7 C-7 5.68 -7 4.36 -7 3 C-6.34 2.67 -5.68 2.34 -5 2 C-5.33 1.34 -5.66 0.68 -6 0 C-3.50907189 -1.24546405 -2.58919267 -0.7767578 0 0 Z " fill="#589463" transform="translate(117,179)"/>
<path d="M0 0 C0.33 0 0.66 0 1 0 C1 11.22 1 22.44 1 34 C7.27 34 13.54 34 20 34 C20 31.03 20 28.06 20 25 C22 26.1875 22 26.1875 24 28 C24.25 30.6875 24.25 30.6875 24 33 C28.41522109 31.73025028 28.41522109 31.73025028 32 29 C36.93935978 27.79669821 41.47488072 27.3946283 46 30 C46.66 30.66 47.32 31.32 48 32 C50.68839385 32.26991906 53.29141936 32.08737357 56 32 C56 32.99 56 33.98 56 35 C54.20906809 35.08086147 52.41710372 35.13912702 50.625 35.1875 C49.12839844 35.23970703 49.12839844 35.23970703 47.6015625 35.29296875 C46.74304688 35.19628906 45.88453125 35.09960938 45 35 C44.34 34.01 43.68 33.02 43 32 C40.57478506 31.41810734 40.57478506 31.41810734 37.875 31.3125 C36.96492188 31.24675781 36.05484375 31.18101562 35.1171875 31.11328125 C34.41851562 31.07589844 33.71984375 31.03851563 33 31 C32.67 32.32 32.34 33.64 32 35 C21.44 35 10.88 35 0 35 C0 23.45 0 11.9 0 0 Z " fill="#8AB794" transform="translate(410,176)"/>
<path d="M0 0 C4.62 0 9.24 0 14 0 C13.01 0.99 12.02 1.98 11 3 C11.33 3.99 11.66 4.98 12 6 C11.06027344 6.19916016 11.06027344 6.19916016 10.1015625 6.40234375 C9.28429687 6.57894531 8.46703125 6.75554687 7.625 6.9375 C6.81289063 7.11152344 6.00078125 7.28554687 5.1640625 7.46484375 C2.32513137 8.1668899 0.95622946 9.03667262 -1.3125 10.9375 C-3.851945 12.8863764 -5.9940124 13.96937568 -9 15 C-9.66 14.34 -10.32 13.68 -11 13 C-10.34 13 -9.68 13 -9 13 C-9 11.68 -9 10.36 -9 9 C-7.625 7.5 -7.625 7.5 -6 6 C-5.649375 5.29875 -5.29875 4.5975 -4.9375 3.875 C-4 2 -4 2 -2 1 C-1.34 1.33 -0.68 1.66 0 2 C0 1.34 0 0.68 0 0 Z " fill="#398C47" transform="translate(326,177)"/>
<path d="M0 0 C7.26 0 14.52 0 22 0 C22 2.97 22 5.94 22 9 C18.37 9 14.74 9 11 9 C11 9.99 11 10.98 11 12 C14.3 12 17.6 12 21 12 C21 14.97 21 17.94 21 21 C17.7 21 14.4 21 11 21 C13 19 13 19 15.5625 18.125 C16.7690625 17.568125 16.7690625 17.568125 18 17 C18.33 15.68 18.66 14.36 19 13 C16.03 13 13.06 13 10 13 C9.957279 11.33388095 9.95936168 9.66617115 10 8 C11 7 11 7 13.28515625 6.90234375 C14.65994141 6.91974609 14.65994141 6.91974609 16.0625 6.9375 C16.98160156 6.94652344 17.90070313 6.95554688 18.84765625 6.96484375 C19.55792969 6.97644531 20.26820313 6.98804688 21 7 C20.67 5.02 20.34 3.04 20 1 C13.73 1 7.46 1 1 1 C1 11.89 1 22.78 1 34 C7.93 34 14.86 34 22 34 C22 34.33 22 34.66 22 35 C14.74 35 7.48 35 0 35 C0 23.45 0 11.9 0 0 Z " fill="#7AA582" transform="translate(237,176)"/>
<path d="M0 0 C2.85514945 1.42757473 4.1031157 2.34436198 6 5 C6.35084422 8.68918018 6.2293246 12.30532588 6 16 C5.34 16 4.68 16 4 16 C3.67 16.99 3.34 17.98 3 19 C2.01 18.67 1.02 18.34 0 18 C-0.3721042 16.67696283 -0.70630173 15.34262065 -1 14 C-1.66 13.67 -2.32 13.34 -3 13 C-3.33 13.66 -3.66 14.32 -4 15 C-3.9278125 14.38511719 -3.855625 13.77023438 -3.78125 13.13671875 C-3.64203125 11.92435547 -3.64203125 11.92435547 -3.5 10.6875 C-3.4071875 9.88699219 -3.314375 9.08648437 -3.21875 8.26171875 C-2.95186537 5.88103445 -2.95186537 5.88103445 -3 3 C-3 2.34 -3 1.68 -3 1 C-2.01 0.67 -1.02 0.34 0 0 Z " fill="#378C46" transform="translate(288,184)"/>
<path d="M0 0 C1.47906892 -0.02689216 2.95827483 -0.04634621 4.4375 -0.0625 C5.26121094 -0.07410156 6.08492187 -0.08570313 6.93359375 -0.09765625 C9 0 9 0 10 1 C10.14115161 3.67058851 10.04247107 6.32432238 10 9 C7.36 9 4.72 9 2 9 C2.00785522 10.1281311 2.00785522 10.1281311 2.01586914 11.27905273 C2.03657227 14.66519342 2.04963877 18.05132084 2.0625 21.4375 C2.07087891 22.62150391 2.07925781 23.80550781 2.08789062 25.02539062 C2.09272461 26.71245117 2.09272461 26.71245117 2.09765625 28.43359375 C2.10551147 29.99678345 2.10551147 29.99678345 2.11352539 31.59155273 C2 34 2 34 1 35 C-2.63 35 -6.26 35 -10 35 C-10 26.42 -10 17.84 -10 9 C-12.64 9 -15.28 9 -18 9 C-18 6.36 -18 3.72 -18 1 C-17.67 1 -17.34 1 -17 1 C-17 3.31 -17 5.62 -17 8 C-14.36 8 -11.72 8 -9 8 C-9 16.58 -9 25.16 -9 34 C-6.03 34 -3.06 34 0 34 C-0.01160156 33.14019531 -0.02320313 32.28039062 -0.03515625 31.39453125 C-0.09765271 23.2074948 0.24173403 15.15135917 1 7 C2.98 6.67 4.96 6.34 7 6 C7.33 4.35 7.66 2.7 8 1 C5.36 1 2.72 1 0 1 C0 0.67 0 0.34 0 0 Z " fill="#89B493" transform="translate(544,176)"/>
<path d="M0 0 C0.66 0 1.32 0 2 0 C3.37000201 2.93036877 4.71818552 5.87026914 6.0625 8.8125 C6.45244141 9.64587891 6.84238281 10.47925781 7.24414062 11.33789062 C7.60830078 12.14033203 7.97246094 12.94277344 8.34765625 13.76953125 C8.68804932 14.50792236 9.02844238 15.24631348 9.37915039 16.00708008 C10 18 10 18 9 21 C6.1875 21.1875 6.1875 21.1875 3 21 C1.375 19.5625 1.375 19.5625 0 18 C-2.10332891 17.28552357 -2.10332891 17.28552357 -4 17 C-4 16.34 -4 15.68 -4 15 C-3.525625 14.54625 -3.05125 14.0925 -2.5625 13.625 C-0.74517174 11.73497861 -0.47622158 10.53984843 0 8 C0.33 7.01 0.66 6.02 1 5 C0.60602665 2.36195411 0.60602665 2.36195411 0 0 Z " fill="#3C8E4C" transform="translate(455,188)"/>
<path d="M0 0 C0.165 1.258125 0.33 2.51625 0.5 3.8125 C1.15231124 6.52726591 1.45028959 7.65293707 3.84375 9.1640625 C5.88090471 9.89478104 7.90269628 10.47130469 10 11 C10.66 11.33 11.32 11.66 12 12 C11.67 15.3 11.34 18.6 11 22 C10.38125 21.360625 9.7625 20.72125 9.125 20.0625 C7.17402388 17.96116416 7.17402388 17.96116416 5 17 C5 16.34 5 15.68 5 15 C4.34 15 3.68 15 3 15 C2.34 14.01 1.68 13.02 1 12 C1.33 13.32 1.66 14.64 2 16 C0.68 16.33 -0.64 16.66 -2 17 C-2 16.67 -2 16.34 -2 16 C-4.31 15.34 -6.62 14.68 -9 14 C-8.34 13.67 -7.68 13.34 -7 13 C-6.67 12.34 -6.34 11.68 -6 11 C-5.67 11.66 -5.34 12.32 -5 13 C-4.34 12.67 -3.68 12.34 -3 12 C-3.020625 10.906875 -3.04125 9.81375 -3.0625 8.6875 C-3 5 -3 5 -2 2 C-2.99 2.33 -3.98 2.66 -5 3 C-5 2.34 -5 1.68 -5 1 C-1.125 0 -1.125 0 0 0 Z " fill="#90B49A" transform="translate(162,191)"/>
<path d="M0 0 C0.99 0.33 1.98 0.66 3 1 C1.25 4.875 1.25 4.875 -1 6 C-2.51921952 9.06517018 -3.89221159 12.18122099 -5.26953125 15.3125 C-7 18 -7 18 -9.51171875 19 C-12 19 -12 19 -15 17 C-15 16.34 -15 15.68 -15 15 C-14.01 15 -13.02 15 -12 15 C-12.03480469 14.37351563 -12.06960937 13.74703125 -12.10546875 13.1015625 C-12.14607422 11.87566406 -12.14607422 11.87566406 -12.1875 10.625 C-12.22230469 9.81289062 -12.25710937 9.00078125 -12.29296875 8.1640625 C-12.19628906 7.44992188 -12.09960938 6.73578125 -12 6 C-8.52735662 3.68490441 -6.11592992 3.37417545 -2 3 C-1.34 3.33 -0.68 3.66 0 4 C0 2.68 0 1.36 0 0 Z M-10 6 C-9.01 6.495 -9.01 6.495 -8 7 C-7.67 7.99 -7.34 8.98 -7 10 C-6.67 9.34 -6.34 8.68 -6 8 C-6.33 7.34 -6.66 6.68 -7 6 C-7.99 6 -8.98 6 -10 6 Z M-11 13 C-10 15 -10 15 -10 15 Z " fill="#80AB8A" transform="translate(175,171)"/>
<path d="M0 0 C-0.875 5.75 -0.875 5.75 -2 8 C-1.34 8 -0.68 8 0 8 C-0.33 8.99 -0.66 9.98 -1 11 C-1.928125 10.773125 -2.85625 10.54625 -3.8125 10.3125 C-5.3903125 10.1578125 -5.3903125 10.1578125 -7 10 C-8.62514468 11.45833358 -8.62514468 11.45833358 -10 13 C-12.1875 12.6875 -12.1875 12.6875 -14 12 C-13.50168276 8.31245243 -12.89932357 6.39509338 -10 4 C-10.33 3.34 -10.66 2.68 -11 2 C-9.5422647 1.664061 -8.08378894 1.33133376 -6.625 1 C-5.81289062 0.814375 -5.00078125 0.62875 -4.1640625 0.4375 C-2 0 -2 0 0 0 Z " fill="#539363" transform="translate(112,163)"/>
<path d="M0 0 C4.13782924 4.27575688 5.05944297 8.31953056 6 14 C4.20906809 14.08086147 2.41710372 14.13912702 0.625 14.1875 C-0.87160156 14.23970703 -0.87160156 14.23970703 -2.3984375 14.29296875 C-3.25695312 14.19628906 -4.11546875 14.09960938 -5 14 C-5.66 13.01 -6.32 12.02 -7 11 C-10.56769552 10.26393501 -10.56769552 10.26393501 -14 10 C-11.36095629 8.58622659 -8.92879371 7.62759865 -6 7 C-5.67 7.99 -5.34 8.98 -5 10 C-4.67 9.01 -4.34 8.02 -4 7 C-3.34 7 -2.68 7 -2 7 C-2.33 5.35 -2.66 3.7 -3 2 C-2.01 3.32 -1.02 4.64 0 6 C0 4.02 0 2.04 0 0 Z " fill="#51965E" transform="translate(373,197)"/>
<path d="M0 0 C2.01822917 0.06510417 4.03645833 0.13020833 6.0546875 0.1953125 C5.0646875 0.6903125 5.0646875 0.6903125 4.0546875 1.1953125 C3.32393102 3.5093747 2.65330492 5.84360119 2.0546875 8.1953125 C2.7146875 8.8553125 3.3746875 9.5153125 4.0546875 10.1953125 C2.0546875 13.1953125 2.0546875 13.1953125 -0.328125 13.70703125 C-1.23304687 13.76503906 -2.13796875 13.82304687 -3.0703125 13.8828125 C-4.43542969 13.98142578 -4.43542969 13.98142578 -5.828125 14.08203125 C-6.87613281 14.13810547 -6.87613281 14.13810547 -7.9453125 14.1953125 C-8.2753125 13.5353125 -8.6053125 12.8753125 -8.9453125 12.1953125 C-8.3059375 11.2878125 -7.6665625 10.3803125 -7.0078125 9.4453125 C-5.27829492 6.72001207 -4.59229881 5.21458195 -3.9453125 2.1953125 C-1.9453125 0.1953125 -1.9453125 0.1953125 0 0 Z " fill="#388346" transform="translate(122.9453125,169.8046875)"/>
<path d="M0 0 C3.12498063 -0.02895976 6.2499269 -0.04678483 9.375 -0.0625 C10.70917969 -0.07506836 10.70917969 -0.07506836 12.0703125 -0.08789062 C13.34648438 -0.09272461 13.34648438 -0.09272461 14.6484375 -0.09765625 C15.43395996 -0.10289307 16.21948242 -0.10812988 17.02880859 -0.11352539 C19 0 19 0 21 1 C21 1.99 21 2.98 21 4 C20.34 4 19.68 4 19 4 C19 3.34 19 2.68 19 2 C18.2575 2.309375 17.515 2.61875 16.75 2.9375 C14 4 14 4 12 4.3125 C8.90572559 5.37615683 7.18053194 7.63775706 5 10 C5 8.68 5 7.36 5 6 C3.68 6.33 2.36 6.66 1 7 C1.99 7.66 2.98 8.32 4 9 C4 9.99 4 10.98 4 12 C2.0625 11.3125 2.0625 11.3125 0 10 C-0.75 7.375 -0.75 7.375 -1 5 C-0.34 5 0.32 5 1 5 C1 4.34 1 3.68 1 3 C1.99 2.67 2.98 2.34 4 2 C2.68 1.34 1.36 0.68 0 0 Z " fill="#67A472" transform="translate(93,161)"/>
<path d="M0 0 C0.66 0 1.32 0 2 0 C2.33 0.99 2.66 1.98 3 3 C1.8203125 5.15625 1.8203125 5.15625 0.125 7.5 C-1.73229619 10.09157608 -2.98483238 11.95449714 -4 15 C-2.68 14.67 -1.36 14.34 0 14 C-0.33 15.98 -0.66 17.96 -1 20 C-1.78375 20.12375 -2.5675 20.2475 -3.375 20.375 C-6.14057822 20.79117993 -6.14057822 20.79117993 -8 23 C-8.33 21.68 -8.66 20.36 -9 19 C-8.01 19 -7.02 19 -6 19 C-6 17.35 -6 15.7 -6 14 C-6.66 14 -7.32 14 -8 14 C-7.25 9.25 -7.25 9.25 -5 7 C-5 6.01 -5 5.02 -5 4 C-4.360625 3.71125 -3.72125 3.4225 -3.0625 3.125 C-0.84793921 2.17176549 -0.84793921 2.17176549 0 0 Z " fill="#579260" transform="translate(135,192)"/>
<path d="M0 0 C2.97 0.33 5.94 0.66 9 1 C8.979375 1.804375 8.95875 2.60875 8.9375 3.4375 C8.70366379 5.93354885 8.70366379 5.93354885 10 7 C10.33 5.68 10.66 4.36 11 3 C11 6.63 11 10.26 11 14 C9.68 14.33 8.36 14.66 7 15 C6.01 14.34 5.02 13.68 4 13 C3.70703125 10.8359375 3.70703125 10.8359375 3.8125 8.375 C3.83957031 7.55773437 3.86664063 6.74046875 3.89453125 5.8984375 C3.92933594 5.27195313 3.96414063 4.64546875 4 4 C2.35 4 0.7 4 -1 4 C-1.33 3.34 -1.66 2.68 -2 2 C-1.34 2 -0.68 2 0 2 C0 1.34 0 0.68 0 0 Z " fill="#358C43" transform="translate(394,178)"/>
<path d="M0 0 C3.35279282 0.46245418 5.68548638 1.52016398 8 4 C8.25 7.6875 8.25 7.6875 8 11 C7.01 10.34 6.02 9.68 5 9 C5 9.66 5 10.32 5 11 C4.34 11 3.68 11 3 11 C2.67 12.32 2.34 13.64 2 15 C1.67 13.68 1.34 12.36 1 11 C0.401875 11.20625 -0.19625 11.4125 -0.8125 11.625 C-3 12 -3 12 -6 10 C-4.35 9.34 -2.7 8.68 -1 8 C-1.020625 6.865625 -1.04125 5.73125 -1.0625 4.5625 C-1 1 -1 1 0 0 Z " fill="#368F46" transform="translate(366,193)"/>
<path d="M0 0 C0.99 0.33 1.98 0.66 3 1 C3 11.23 3 21.46 3 32 C8.28 32.33 13.56 32.66 19 33 C19 33.33 19 33.66 19 34 C16.02077407 34.02683987 13.04178705 34.04676037 10.0625 34.0625 C9.21236328 34.07087891 8.36222656 34.07925781 7.48632812 34.08789062 C6.67744141 34.09111328 5.86855469 34.09433594 5.03515625 34.09765625 C4.2862915 34.10289307 3.53742676 34.10812988 2.76586914 34.11352539 C1 34 1 34 0 33 C-0.08843793 30.55169574 -0.11528752 28.13179401 -0.09765625 25.68359375 C-0.0962413 24.95253922 -0.09482635 24.22148468 -0.09336853 23.46827698 C-0.08775408 21.12464368 -0.07519922 18.78110461 -0.0625 16.4375 C-0.05748686 14.85221492 -0.05292363 13.26692834 -0.04882812 11.68164062 C-0.03777997 7.7877239 -0.02050572 3.89387795 0 0 Z " fill="#A4BFA9" transform="translate(262,177)"/>
<path d="M0 0 C1.10868317 3.32604951 1.54177532 6.53058454 2 10 C4.01822917 9.90234375 6.03645833 9.8046875 8.0546875 9.70703125 C8.69664063 9.80371094 9.33859375 9.90039062 10 10 C12.35119399 13.52679099 12.21443452 15.02879485 12.125 19.1875 C12.10695313 20.27417969 12.08890625 21.36085937 12.0703125 22.48046875 C12.03550781 23.72763672 12.03550781 23.72763672 12 25 C13.98 25.33 15.96 25.66 18 26 C16.02 26.99 16.02 26.99 14 28 C10.92056849 25.94704566 10.20706879 25.34265205 9 22 C8.95745644 20.00045254 8.95919217 17.99958364 9 16 C8.708776 14.32546201 8.38929201 12.65449105 8 11 C7.0925 11.2475 6.185 11.495 5.25 11.75 C2 12 2 12 -0.4375 10.5 C-2 8 -2 8 -1.8125 4.3125 C-1 1 -1 1 0 0 Z " fill="#78A784" transform="translate(109,189)"/>
<path d="M0 0 C0.2475 0.639375 0.495 1.27875 0.75 1.9375 C1.78813195 4.19635114 1.78813195 4.19635114 4 4.5 C4.66 4.665 5.32 4.83 6 5 C6.70151152 6.3153341 7.36525925 7.65117592 8 9 C10.03317007 10.73425773 10.03317007 10.73425773 12 12 C11.67 12.66 11.34 13.32 11 14 C9.68 13.67 8.36 13.34 7 13 C7 12.01 7 11.02 7 10 C3.05272412 9.82057837 0.4019487 9.90649311 -3 12 C-3.33 11.01 -3.66 10.02 -4 9 C-6.01508358 8.26676204 -6.01508358 8.26676204 -8 8 C-7.38125 7.938125 -6.7625 7.87625 -6.125 7.8125 C-3.72238859 7.171081 -3.72238859 7.171081 -2.75 4.4375 C-2.5025 3.633125 -2.255 2.82875 -2 2 C-3.32 2.33 -4.64 2.66 -6 3 C-6 2.34 -6 1.68 -6 1 C-4.7934375 1.0309375 -4.7934375 1.0309375 -3.5625 1.0625 C-1.06645115 1.29633621 -1.06645115 1.29633621 0 0 Z M-2 6 C-1.67 6.99 -1.34 7.98 -1 9 C-0.34 8.67 0.32 8.34 1 8 C0.67 7.34 0.34 6.68 0 6 C-0.66 6 -1.32 6 -2 6 Z " fill="#95B69D" transform="translate(85,188)"/>
<path d="M0 0 C5.77429467 5.478177 5.77429467 5.478177 6.203125 10.26953125 C6.30161124 15.61240953 6.11530999 19.43829609 3 24 C0.8125 25.875 0.8125 25.875 -1 27 C-0.38722388 24.03824877 0.25372522 22.61941217 2 20 C2.66 20 3.32 20 4 20 C4.07826353 12.57117119 4.07826353 12.57117119 0.625 6.375 C-1.99833259 4.91162738 -1.99833259 4.91162738 -5 4 C-4.0409375 3.8453125 -4.0409375 3.8453125 -3.0625 3.6875 C-2.381875 3.460625 -1.70125 3.23375 -1 3 C-0.67 2.01 -0.34 1.02 0 0 Z " fill="#68966D" transform="translate(290,180)"/>
<path d="M0 0 C0.33 0 0.66 0 1 0 C1 11.22 1 22.44 1 34 C3.97 34 6.94 34 10 34 C10 30.04 10 26.08 10 22 C11.32 21.34 12.64 20.68 14 20 C14.28875 20.94875 14.5775 21.8975 14.875 22.875 C15.76825109 26.05211578 15.76825109 26.05211578 18 28 C17.01 28 16.02 28 15 28 C14.01 26.68 13.02 25.36 12 24 C11.67 27.63 11.34 31.26 11 35 C7.37 35 3.74 35 0 35 C0 23.45 0 11.9 0 0 Z " fill="#99C2A0" transform="translate(194,176)"/>
<path d="M0 0 C1.3303125 0.10054687 1.3303125 0.10054687 2.6875 0.203125 C5 0.75 5 0.75 7 3.75 C7 6.86227195 6.54372951 9.69152152 6 12.75 C5.67 12.75 5.34 12.75 5 12.75 C4.7525 10.8628125 4.7525 10.8628125 4.5 8.9375 C3.84263405 6.16577045 3.53392037 5.08451746 1.0859375 3.55078125 C-1.37264337 2.62079178 -1.37264337 2.62079178 -5 1.75 C-5 7.03 -5 12.31 -5 17.75 C-5.66 17.42 -6.32 17.09 -7 16.75 C-7 11.47 -7 6.19 -7 0.75 C-4.43148558 -0.53425721 -2.84754463 -0.24833238 0 0 Z " fill="#68A679" transform="translate(279,183.25)"/>
<path d="M0 0 C0.66 0.33 1.32 0.66 2 1 C2 3.97 2 6.94 2 10 C2.99 10.33 3.98 10.66 5 11 C5 11.66 5 12.32 5 13 C6.98 13 8.96 13 11 13 C11 13.33 11 13.66 11 14 C9.35425434 14.02688151 7.70838587 14.04634123 6.0625 14.0625 C5.14597656 14.07410156 4.22945312 14.08570313 3.28515625 14.09765625 C1 14 1 14 0 13 C-0.23287008 11.31816052 -0.41264166 9.6287584 -0.5625 7.9375 C-0.64628906 7.01839844 -0.73007813 6.09929687 -0.81640625 5.15234375 C-0.87699219 4.44207031 -0.93757812 3.73179687 -1 3 C-1.556875 3.99 -2.11375 4.98 -2.6875 6 C-5 9 -5 9 -7.75 9.375 C-8.4925 9.25125 -9.235 9.1275 -10 9 C-7.53846154 5.18461538 -7.53846154 5.18461538 -4.8125 4.25 C-4.214375 4.1675 -3.61625 4.085 -3 4 C-3 3.01 -3 2.02 -3 1 C-2.01 0.67 -1.02 0.34 0 0 Z " fill="#7CAB84" transform="translate(221,197)"/>
<path d="M0 0 C0.33 0 0.66 0 1 0 C1.33 10.56 1.66 21.12 2 32 C4.97 32.33 7.94 32.66 11 33 C11 33.66 11 34.32 11 35 C9.35425434 35.02688151 7.70838587 35.04634123 6.0625 35.0625 C5.14597656 35.07410156 4.22945313 35.08570313 3.28515625 35.09765625 C1 35 1 35 0 34 C-0.08847743 31.47905924 -0.11527301 28.98569107 -0.09765625 26.46484375 C-0.0962413 25.71159317 -0.09482635 24.95834259 -0.09336853 24.18226624 C-0.08775376 21.7673044 -0.07519883 19.35243399 -0.0625 16.9375 C-0.0574869 15.30403779 -0.05292366 13.67057414 -0.04882812 12.03710938 C-0.03777954 8.02470415 -0.02050506 4.01236759 0 0 Z " fill="#88AF90" transform="translate(299,176)"/>
<path d="M0 0 C0.33 0 0.66 0 1 0 C1.33 2.31 1.66 4.62 2 7 C2.99 7 3.98 7 5 7 C5.66 7 6.32 7 7 7 C7.33 6.01 7.66 5.02 8 4 C8.66 4.66 9.32 5.32 10 6 C9.34 6.70125 8.68 7.4025 8 8.125 C5.69766797 11.43460229 5.63369844 13.06225823 6 17 C3.13275314 16.42655063 2.1385485 16.1385485 0 14 C-0.1953125 10.7421875 -0.1953125 10.7421875 -0.125 6.875 C-0.10695313 5.59367188 -0.08890625 4.31234375 -0.0703125 2.9921875 C-0.04710938 2.00476563 -0.02390625 1.01734375 0 0 Z " fill="#70A579" transform="translate(87,210)"/>
<path d="M0 0 C1.32 0.33 2.64 0.66 4 1 C5.32 1 6.64 1 8 1 C8.33 1.99 8.66 2.98 9 4 C9.66 4 10.32 4 11 4 C10.67 5.98 10.34 7.96 10 10 C7.69 9.67 5.38 9.34 3 9 C2.01 6.03 1.02 3.06 0 0 Z " fill="#368B45" transform="translate(319,199)"/>
<path d="M0 0 C0.66 0.66 1.32 1.32 2 2 C1.625 4.125 1.625 4.125 1 6 C2.32 5.67 3.64 5.34 5 5 C5 6.98 5 8.96 5 11 C1.88742431 11 -0.10765685 10.82638376 -3 10 C-4 5.25 -4 5.25 -4 3 C-2.68 3 -1.36 3 0 3 C0 2.01 0 1.02 0 0 Z " fill="#6C9D7C" transform="translate(155,193)"/>
<path d="M0 0 C2 3 2 3 1.5390625 5.41015625 C1.23742187 6.28542969 0.93578125 7.16070312 0.625 8.0625 C-0.59713165 11.46359145 -0.59713165 11.46359145 -1 15 C-2.32 15.33 -3.64 15.66 -5 16 C-5.12375 16.639375 -5.2475 17.27875 -5.375 17.9375 C-5.58125 18.618125 -5.7875 19.29875 -6 20 C-6.66 20.33 -7.32 20.66 -8 21 C-7.42460686 15.79714932 -5.70581107 11.76043964 -3.4375 7.125 C-3.10814453 6.43664062 -2.77878906 5.74828125 -2.43945312 5.0390625 C-1.63304639 3.3561267 -0.81745506 1.67759707 0 0 Z " fill="#629A6D" transform="translate(442,183)"/>
<path d="M0 0 C2.97 0 5.94 0 9 0 C9 11.22 9 22.44 9 34 C8.67 34 8.34 34 8 34 C8 23.11 8 12.22 8 1 C6.68 1 5.36 1 4 1 C3.67 1.99 3.34 2.98 3 4 C1.35 4.33 -0.3 4.66 -2 5 C-1.34 3.35 -0.68 1.7 0 0 Z " fill="#4A7752" transform="translate(224,176)"/>
<path d="M0 0 C0.33 0.66 0.66 1.32 1 2 C-0.546875 3.984375 -0.546875 3.984375 -3 6 C-6.453125 6.390625 -6.453125 6.390625 -10.25 6.25 C-11.51328125 6.21390625 -12.7765625 6.1778125 -14.078125 6.140625 C-15.52445312 6.07101563 -15.52445312 6.07101563 -17 6 C-17.66 7.65 -18.32 9.3 -19 11 C-17.68 11.66 -16.36 12.32 -15 13 C-17.31 13.66 -19.62 14.32 -22 15 C-22 13.02 -22 11.04 -22 9 C-21.01 8.67 -20.02 8.34 -19 8 C-18.67 7.01 -18.34 6.02 -18 5 C-14.67967257 4.35213123 -11.83157795 4.00886432 -8.4375 4.1875 C-4.32862875 3.96337975 -2.90252561 2.81457028 0 0 Z " fill="#8DB893" transform="translate(81,164)"/>
<path d="M0 0 C0.66 0 1.32 0 2 0 C2 1.32 2 2.64 2 4 C3.6396875 3.4740625 3.6396875 3.4740625 5.3125 2.9375 C9 2 9 2 12 3 C10.82421875 4.984375 10.82421875 4.984375 9 7 C6.51953125 7.390625 6.51953125 7.390625 3.8125 7.25 C2.91144531 7.21390625 2.01039063 7.1778125 1.08203125 7.140625 C0.39496094 7.09421875 -0.29210937 7.0478125 -1 7 C-2 4 -2 4 -1.0625 1.8125 C-0.5365625 0.9153125 -0.5365625 0.9153125 0 0 Z " fill="#679F72" transform="translate(346,204)"/>
<path d="M0 0 C6.15234375 -0.09765625 6.15234375 -0.09765625 8 0 C9 1 9 1 9.125 4.5 C9 8 9 8 8 9 C6.48071962 9.07179964 4.95832518 9.08392007 3.4375 9.0625 C2.61121094 9.05347656 1.78492188 9.04445312 0.93359375 9.03515625 C0.29550781 9.02355469 -0.34257813 9.01195312 -1 9 C-1.33 8.34 -1.66 7.68 -2 7 C0.31 6.34 2.62 5.68 5 5 C4.67 4.01 4.34 3.02 4 2 C1.98491642 1.26676204 1.98491642 1.26676204 0 1 C0 0.67 0 0.34 0 0 Z " fill="#528D5D" transform="translate(515,188)"/>
<path d="M0 0 C0.33 0.99 0.66 1.98 1 3 C-0.15628906 3.03867188 -0.15628906 3.03867188 -1.3359375 3.078125 C-2.33882812 3.13484375 -3.34171875 3.1915625 -4.375 3.25 C-5.37273437 3.29640625 -6.37046875 3.3428125 -7.3984375 3.390625 C-10.11117913 3.72715433 -10.11117913 3.72715433 -11.3515625 5.859375 C-12.14495523 8.10574655 -12.14495523 8.10574655 -12 11 C-14.97 11.66 -17.94 12.32 -21 13 C-20 9 -20 9 -17 7 C-16.67 7.99 -16.34 8.98 -16 10 C-15.773125 9.2575 -15.54625 8.515 -15.3125 7.75 C-13.64631496 4.25894564 -12.40015363 2.88093605 -9 1 C-5.92058535 0.96899918 -3.01450208 1.39578607 0 2 C0 1.34 0 0.68 0 0 Z " fill="#94BA9C" transform="translate(131,167)"/>
<path d="M0 0 C0.66 0.33 1.32 0.66 2 1 C0.79618552 3.49361571 -0.45428722 5.68143083 -2 8 C-2.66 8 -3.32 8 -4 8 C-4 9.32 -4 10.64 -4 12 C-4.66 12 -5.32 12 -6 12 C-5.43260132 16.12973628 -5.43260132 16.12973628 -4 20 C-4.66 20 -5.32 20 -6 20 C-6.33 20.66 -6.66 21.32 -7 22 C-8.17383548 15.76311512 -8.23618923 11.71726763 -5 6 C-3.42290561 3.884728 -1.77172576 1.96326368 0 0 Z " fill="#77A881" transform="translate(321,178)"/>
<path d="M0 0 C1.67542976 0.28604898 3.34385343 0.61781233 5 1 C5 1.66 5 2.32 5 3 C5.69867188 3.04898438 6.39734375 3.09796875 7.1171875 3.1484375 C8.02726563 3.22320312 8.93734375 3.29796875 9.875 3.375 C10.77992188 3.44460937 11.68484375 3.51421875 12.6171875 3.5859375 C15 4 15 4 17 6 C13.04 6 9.08 6 5 6 C5 5.34 5 4.68 5 4 C1.04 3.67 -2.92 3.34 -7 3 C-6.67 2.34 -6.34 1.68 -6 1 C-4.7934375 1.0309375 -4.7934375 1.0309375 -3.5625 1.0625 C-1.06645115 1.29633621 -1.06645115 1.29633621 0 0 Z " fill="#88B38F" transform="translate(158,165)"/>
<path d="M0 0 C2.97 0 5.94 0 9 0 C8.67 3.63 8.34 7.26 8 11 C7.38125 10.360625 6.7625 9.72125 6.125 9.0625 C4.17402388 6.96116416 4.17402388 6.96116416 2 6 C2 5.34 2 4.68 2 4 C1.34 4 0.68 4 0 4 C0 2.68 0 1.36 0 0 Z " fill="#74A881" transform="translate(165,202)"/>
<path d="M0 0 C-1.2739589 2.03833424 -2.61061923 4.03852126 -4 6 C-4.66 6 -5.32 6 -6 6 C-6 6.66 -6 7.32 -6 8 C-6.66 7.67 -7.32 7.34 -8 7 C-7.67 6.34 -7.34 5.68 -7 5 C-8.65 5 -10.3 5 -12 5 C-12.33 4.34 -12.66 3.68 -13 3 C-8.8341563 0.22277086 -4.9360889 -1.89849573 0 0 Z " fill="#569767" transform="translate(93,163)"/>
<path d="M0 0 C6.93 0 13.86 0 21 0 C20 2 20 2 17.5625 3.1875 C12.91831411 4.24670029 8.63422617 4.13943845 4 3 C2.68 2.01 1.36 1.02 0 0 Z " fill="#6BA377" transform="translate(322,208)"/>
<path d="M0 0 C-0.33 0.99 -0.66 1.98 -1 3 C-1.66 3 -2.32 3 -3 3 C-3.33 4.32 -3.66 5.64 -4 7 C-6.64 7 -9.28 7 -12 7 C-11.34 6.01 -10.68 5.02 -10 4 C-10.33 3.34 -10.66 2.68 -11 2 C-9.5422647 1.664061 -8.08378894 1.33133376 -6.625 1 C-5.40683594 0.7215625 -5.40683594 0.7215625 -4.1640625 0.4375 C-2 0 -2 0 0 0 Z " fill="#388E49" transform="translate(112,163)"/>
<path d="M0 0 C2.31 0 4.62 0 7 0 C7.69699552 1.45381897 8.38233866 2.91322953 9.0625 4.375 C9.44535156 5.18710938 9.82820313 5.99921875 10.22265625 6.8359375 C10.47917969 7.55007812 10.73570312 8.26421875 11 9 C10.67 9.66 10.34 10.32 10 11 C7.61744733 9.05063872 6.96258588 7.88308087 6 4.875 C5.67 3.92625 5.34 2.9775 5 2 C4.01 1.67 3.02 1.34 2 1 C1.67 2.65 1.34 4.3 1 6 C0.01 6 -0.98 6 -2 6 C-1.34 4.02 -0.68 2.04 0 0 Z " fill="#5E9267" transform="translate(445,176)"/>
<path d="M0 0 C3.63 0 7.26 0 11 0 C11 2.97 11 5.94 11 9 C7.7 9 4.4 9 1 9 C3 7 3 7 5.5625 6.125 C6.7690625 5.568125 6.7690625 5.568125 8 5 C8.33 3.68 8.66 2.36 9 1 C6.03 1 3.06 1 0 1 C0 0.67 0 0.34 0 0 Z " fill="#63976A" transform="translate(247,188)"/>
<path d="M0 0 C0.99 0.33 1.98 0.66 3 1 C1.25 4.875 1.25 4.875 -1 6 C-2.13350534 8.01669827 -2.13350534 8.01669827 -3 10 C-3.66 10 -4.32 10 -5 10 C-5 9.34 -5 8.68 -5 8 C-5.66 8 -6.32 8 -7 8 C-7 7.34 -7 6.68 -7 6 C-7.99 5.67 -8.98 5.34 -10 5 C-3.375 2.875 -3.375 2.875 0 4 C0 2.68 0 1.36 0 0 Z " fill="#679C71" transform="translate(175,171)"/>
<path d="M0 0 C0.99 0.33 1.98 0.66 3 1 C4.1875 3.5625 4.1875 3.5625 5 6 C-1.75 8 -1.75 8 -4 8 C-3.40072174 4.64404172 -2.15377564 2.62198774 0 0 Z " fill="#368E46" transform="translate(352,200)"/>
<path d="M0 0 C2 3 2 3 2 7 C-2.29 7 -6.58 7 -11 7 C-11 6.67 -11 6.34 -11 6 C-9.35 5.67 -7.7 5.34 -6 5 C-5.67 4.01 -5.34 3.02 -5 2 C-2.4375 0.8125 -2.4375 0.8125 0 0 Z " fill="#358243" transform="translate(427,203)"/>
<path d="M0 0 C0.66 1.32 1.32 2.64 2 4 C1.34 4 0.68 4 0 4 C0 4.66 0 5.32 0 6 C-0.99 6 -1.98 6 -3 6 C-3 8.31 -3 10.62 -3 13 C-3.66 13 -4.32 13 -5 13 C-5.33 13.66 -5.66 14.32 -6 15 C-6.33 14.01 -6.66 13.02 -7 12 C-7.66 12 -8.32 12 -9 12 C-7.67644679 9.35289358 -5.86808491 7.29507575 -4 5 C-3.2575 4.071875 -2.515 3.14375 -1.75 2.1875 C-1.1725 1.465625 -0.595 0.74375 0 0 Z " fill="#4C9057" transform="translate(221,181)"/>
<path d="M0 0 C0.66 0.33 1.32 0.66 2 1 C1.67 1.99 1.34 2.98 1 4 C2.32 3.67 3.64 3.34 5 3 C4.67 4.98 4.34 6.96 4 9 C2.824375 9.185625 2.824375 9.185625 1.625 9.375 C-1.14057822 9.79117993 -1.14057822 9.79117993 -3 12 C-3.33 10.68 -3.66 9.36 -4 8 C-3.01 8 -2.02 8 -1 8 C-0.67 5.36 -0.34 2.72 0 0 Z " fill="#8EB193" transform="translate(130,203)"/>
<path d="M0 0 C1.10868317 3.32604951 1.54177532 6.53058454 2 10 C4.64 10 7.28 10 10 10 C9.34 11.32 8.68 12.64 8 14 C8 13.01 8 12.02 8 11 C7.0925 11.2475 6.185 11.495 5.25 11.75 C2 12 2 12 -0.4375 10.5 C-2 8 -2 8 -1.8125 4.3125 C-1 1 -1 1 0 0 Z " fill="#82B08C" transform="translate(109,189)"/>
<path d="M0 0 C0.33 0 0.66 0 1 0 C1 3.63 1 7.26 1 11 C2.98 11 4.96 11 7 11 C7.33 8.69 7.66 6.38 8 4 C8.66 4 9.32 4 10 4 C9.67 6.97 9.34 9.94 9 13 C6.03 13 3.06 13 0 13 C0 8.71 0 4.42 0 0 Z " fill="#3D7F4B" transform="translate(381,197)"/>
<path d="M0 0 C0.66 0 1.32 0 2 0 C2 0.66 2 1.32 2 2 C4.97 1.34 7.94 0.68 11 0 C10.67 1.32 10.34 2.64 10 4 C10 3.34 10 2.68 10 2 C9.01 2.66 8.02 3.32 7 4 C7 5.32 7 6.64 7 8 C5.1875 7.9375 5.1875 7.9375 3 7 C1.25 3.4375 1.25 3.4375 0 0 Z " fill="#7FAE88" transform="translate(140,192)"/>
<path d="M0 0 C0.33 0.66 0.66 1.32 1 2 C3.02463255 2.65213292 3.02463255 2.65213292 5 3 C4.34 3 3.68 3 3 3 C2.67 3.99 2.34 4.98 2 6 C0.02 6 -1.96 6 -4 6 C-4.33 5.01 -4.66 4.02 -5 3 C-5.66 2.67 -6.32 2.34 -7 2 C-2.25 0 -2.25 0 0 0 Z " fill="#569261" transform="translate(79,190)"/>
<path d="M0 0 C3.3956697 -0.08745946 6.79104773 -0.14054444 10.1875 -0.1875 C11.14720703 -0.21263672 12.10691406 -0.23777344 13.09570312 -0.26367188 C21.88777807 -0.35493909 21.88777807 -0.35493909 26 3 C22.01592248 4.32802584 20.01454432 3.15168006 16 2 C13.19250599 1.64300832 10.38883192 1.49912071 7.5625 1.375 C6.46518555 1.31699219 6.46518555 1.31699219 5.34570312 1.2578125 C3.56416468 1.16466016 1.78211878 1.08129714 0 1 C0 0.67 0 0.34 0 0 Z " fill="#518859" transform="translate(263,176)"/>
<path d="M0 0 C2 2 2 2 2.13525391 4.06298828 C2.08288574 4.89040527 2.03051758 5.71782227 1.9765625 6.5703125 C1.925 7.46621094 1.8734375 8.36210937 1.8203125 9.28515625 C1.75585938 10.22230469 1.69140625 11.15945312 1.625 12.125 C1.56828125 13.06988281 1.5115625 14.01476562 1.453125 14.98828125 C1.31142903 17.32626481 1.16000217 19.66320944 1 22 C1.99 22.33 2.98 22.66 4 23 C4 23.66 4 24.32 4 25 C2.68 25 1.36 25 0 25 C0 16.75 0 8.5 0 0 Z " fill="#3F7C4C" transform="translate(535,185)"/>
<path d="M0 0 C0 3 0 3 -2.6875 5.75 C-5.13973374 7.70130238 -5.61524153 8.02509294 -8.875 7.8125 C-9.926875 7.4103125 -9.926875 7.4103125 -11 7 C-7.67123288 2.19178082 -7.67123288 2.19178082 -4.375 1.25 C-3.59125 1.1675 -2.8075 1.085 -2 1 C-1.34 0.67 -0.68 0.34 0 0 Z " fill="#5E9569" transform="translate(406,192)"/>
<path d="M0 0 C1.65 1.65 3.3 3.3 5 5 C4.34 6.32 3.68 7.64 3 9 C2.236875 8.360625 1.47375 7.72125 0.6875 7.0625 C-1.88246713 4.85767219 -1.88246713 4.85767219 -5 4 C-4.0409375 3.8453125 -4.0409375 3.8453125 -3.0625 3.6875 C-2.381875 3.460625 -1.70125 3.23375 -1 3 C-0.67 2.01 -0.34 1.02 0 0 Z " fill="#5F9D68" transform="translate(290,180)"/>
<path d="M0 0 C-2.61941217 1.74627478 -4.03824877 2.38722388 -7 3 C-6.67 4.32 -6.34 5.64 -6 7 C-7.32 7.33 -8.64 7.66 -10 8 C-11.30892449 3.597254 -11.30892449 3.597254 -10.0625 1.1875 C-6.76781888 -0.70943762 -3.75761536 -0.18480076 0 0 Z " fill="#428B51" transform="translate(129,170)"/>
<path d="M0 0 C0.99 0 1.98 0 3 0 C3 3.63 3 7.26 3 11 C1 7 1 7 1 5 C-1.31 4.67 -3.62 4.34 -6 4 C-5.38125 3.71125 -4.7625 3.4225 -4.125 3.125 C-1.86674235 2.06279958 -1.86674235 2.06279958 0 0 Z " fill="#71A079" transform="translate(341,197)"/>
<path d="M0 0 C0.99 0 1.98 0 3 0 C3.33 0.99 3.66 1.98 4 3 C6.31 3 8.62 3 11 3 C8.60236815 5.39763185 7.66726502 5.34280586 4.375 5.625 C3.55773437 5.69976562 2.74046875 5.77453125 1.8984375 5.8515625 C1.27195312 5.90054688 0.64546875 5.94953125 0 6 C-0.66 4.68 -1.32 3.36 -2 2 C-1.34 1.34 -0.68 0.68 0 0 Z " fill="#7FAF8B" transform="translate(117,183)"/>
<path d="M0 0 C2 1 2 1 3.125 4.0625 C3.41375 5.031875 3.7025 6.00125 4 7 C2.68 7.33 1.36 7.66 0 8 C0 7.67 0 7.34 0 7 C-2.31 6.34 -4.62 5.68 -7 5 C-6.34 4.67 -5.68 4.34 -5 4 C-4.67 3.34 -4.34 2.68 -4 2 C-3.67 2.66 -3.34 3.32 -3 4 C-2.34 3.67 -1.68 3.34 -1 3 C-0.67 2.01 -0.34 1.02 0 0 Z " fill="#77AA83" transform="translate(160,200)"/>
<path d="M0 0 C0.33 0 0.66 0 1 0 C1 5.28 1 10.56 1 16 C-3.29425875 14.92643531 -3.74740471 14.4915227 -6 11 C-5.67 10.34 -5.34 9.68 -5 9 C-3.68 10.32 -2.36 11.64 -1 13 C-0.67 8.71 -0.34 4.42 0 0 Z " fill="#79AA84" transform="translate(488,176)"/>
<path d="M0 0 C0.33 2.31 0.66 4.62 1 7 C0.01 7.33 -0.98 7.66 -2 8 C-2.33 6.68 -2.66 5.36 -3 4 C-4.32 3.67 -5.64 3.34 -7 3 C-7 2.34 -7 1.68 -7 1 C-4.53721199 -0.231394 -2.7204945 -0.07159196 0 0 Z " fill="#54925F" transform="translate(398,182)"/>
<path d="M0 0 C2.875 0.75 2.875 0.75 6 2 C7.1875 4.0625 7.1875 4.0625 8 6 C8.99 6.33 9.98 6.66 11 7 C10.67 8.32 10.34 9.64 10 11 C8.33035479 9.35718838 6.6643536 7.71067239 5 6.0625 C4.071875 5.14597656 3.14375 4.22945312 2.1875 3.28515625 C0 1 0 1 0 0 Z " fill="#7DB188" transform="translate(479,197)"/>
<path d="M0 0 C0.99 0.33 1.98 0.66 3 1 C3 1.99 3 2.98 3 4 C1.68 4.33 0.36 4.66 -1 5 C-1 5.66 -1 6.32 -1 7 C-1.99 7.33 -2.98 7.66 -4 8 C-4.33 6.68 -4.66 5.36 -5 4 C-4.360625 3.71125 -3.72125 3.4225 -3.0625 3.125 C-0.84793921 2.17176549 -0.84793921 2.17176549 0 0 Z " fill="#97B4A4" transform="translate(178,216)"/>
<path d="M0 0 C0.33 0 0.66 0 1 0 C1 2.97 1 5.94 1 9 C1.99 9.33 2.98 9.66 4 10 C4 10.66 4 11.32 4 12 C5.98 12 7.96 12 10 12 C10 12.33 10 12.66 10 13 C6.7 13 3.4 13 0 13 C0 8.71 0 4.42 0 0 Z " fill="#60986C" transform="translate(222,198)"/>
<path d="M0 0 C0.268125 0.5775 0.53625 1.155 0.8125 1.75 C2.01719859 4.0325868 3.40798115 5.9737942 5 8 C4.01 8 3.02 8 2 8 C1.01 6.68 0.02 5.36 -1 4 C-1.33 7.3 -1.66 10.6 -2 14 C-2.33 14 -2.66 14 -3 14 C-3.08082094 12.04233719 -3.13910778 10.08373272 -3.1875 8.125 C-3.22230469 7.03445312 -3.25710937 5.94390625 -3.29296875 4.8203125 C-3.19628906 3.88960937 -3.09960938 2.95890625 -3 2 C-2.01 1.34 -1.02 0.68 0 0 Z " fill="#71A47B" transform="translate(207,196)"/>
<path d="M0 0 C0.99 0.33 1.98 0.66 3 1 C3 1.66 3 2.32 3 3 C2.34 3 1.68 3 1 3 C1.33 4.65 1.66 6.3 2 8 C1.01 8.33 0.02 8.66 -1 9 C-2.66710346 10.49985609 -2.66710346 10.49985609 -4 12 C-4 8.76344816 -3.3449153 7.21247361 -2 4.3125 C-1.62875 3.50425781 -1.2575 2.69601563 -0.875 1.86328125 C-0.58625 1.24839844 -0.2975 0.63351563 0 0 Z " fill="#67A072" transform="translate(354,186)"/>
<path d="M0 0 C0.62648438 0.0721875 1.25296875 0.144375 1.8984375 0.21875 C3.12433594 0.35796875 3.12433594 0.35796875 4.375 0.5 C5.59316406 0.63921875 5.59316406 0.63921875 6.8359375 0.78125 C8.96912825 1.03352351 8.96912825 1.03352351 11 1 C11 1.99 11 2.98 11 4 C7.37 4 3.74 4 0 4 C0 2.68 0 1.36 0 0 Z " fill="#75A37B" transform="translate(455,207)"/>
<path d="M0 0 C3.73783993 3.73783993 5.21998106 8.85187497 6 14 C5.01 14.33 4.02 14.66 3 15 C2.49363393 13.25183142 1.99515381 11.50137737 1.5 9.75 C1.2215625 8.77546875 0.943125 7.8009375 0.65625 6.796875 C0 4 0 4 0 0 Z " fill="#73A47B" transform="translate(367,182)"/>
<path d="M0 0 C0.99 0.33 1.98 0.66 3 1 C3 2.65 3 4.3 3 6 C5.31 5.34 7.62 4.68 10 4 C10.33 4.99 10.66 5.98 11 7 C7.37 7 3.74 7 0 7 C0 4.69 0 2.38 0 0 Z " fill="#4A9954" transform="translate(431,203)"/>
<path d="M0 0 C0 1.98 0 3.96 0 6 C-2.33333333 6 -4.66666667 6 -7 6 C-7 5.01 -7 4.02 -7 3 C-2.77777778 0 -2.77777778 0 0 0 Z " fill="#478655" transform="translate(160,198)"/>
<path d="M0 0 C2.97 0 5.94 0 9 0 C8.67 1.32 8.34 2.64 8 4 C8 3.01 8 2.02 8 1 C6.68 1 5.36 1 4 1 C3.67 1.99 3.34 2.98 3 4 C1.35 4.33 -0.3 4.66 -2 5 C-1.34 3.35 -0.68 1.7 0 0 Z " fill="#669D70" transform="translate(224,176)"/>
<path d="M0 0 C0.33 0.66 0.66 1.32 1 2 C0.0625 4.125 0.0625 4.125 -1 6 C-0.34 6 0.32 6 1 6 C0.67 6.99 0.34 7.98 0 9 C-2.64 8.67 -5.28 8.34 -8 8 C-8 7.34 -8 6.68 -8 6 C-6.35 6 -4.7 6 -3 6 C-2.814375 4.7934375 -2.814375 4.7934375 -2.625 3.5625 C-2.41875 2.716875 -2.2125 1.87125 -2 1 C-1.34 0.67 -0.68 0.34 0 0 Z " fill="#84AC8D" transform="translate(111,165)"/>
<path d="M0 0 C0.33 1.32 0.66 2.64 1 4 C3.64 4 6.28 4 9 4 C9 6.97 9 9.94 9 13 C8.67 13 8.34 13 8 13 C8 10.36 8 7.72 8 5 C3.545 5.495 3.545 5.495 -1 6 C-0.67 4.02 -0.34 2.04 0 0 Z " fill="#4E8A57" transform="translate(421,197)"/>
<path d="M0 0 C1.98 0.66 3.96 1.32 6 2 C6.33 3.98 6.66 5.96 7 8 C3.64379729 6.61122646 1.92701272 5.08322035 0 2 C0 1.34 0 0.68 0 0 Z " fill="#6DA277" transform="translate(315,200)"/>
<path d="M0 0 C0.66 0 1.32 0 2 0 C2.86366822 1.78710586 3.71568594 3.5798465 4.5625 5.375 C5.27599609 6.87160156 5.27599609 6.87160156 6.00390625 8.3984375 C6.33261719 9.25695312 6.66132813 10.11546875 7 11 C6.67 11.66 6.34 12.32 6 13 C5.67 12.01 5.34 11.02 5 10 C4.01 9.67 3.02 9.34 2 9 C2 8.01 2 7.02 2 6 C1.34 5.01 0.68 4.02 0 3 C0 2.01 0 1.02 0 0 Z " fill="#669B71" transform="translate(455,188)"/>
<path d="M0 0 C2.97 0 5.94 0 9 0 C9 0.66 9 1.32 9 2 C5.5647952 4.29013653 4.014669 4.17842973 0 4 C0 2.68 0 1.36 0 0 Z " fill="#508F61" transform="translate(120,182)"/>
<path d="M0 0 C1.98 0 3.96 0 6 0 C6 0.99 6 1.98 6 3 C6.66 3 7.32 3 8 3 C8 3.99 8 4.98 8 6 C5.03 5.01 2.06 4.02 -1 3 C-0.67 2.01 -0.34 1.02 0 0 Z " fill="#B8CCC2" transform="translate(130,162)"/>
<path d="M0 0 C1.98 0 3.96 0 6 0 C4.625 2 4.625 2 3 4 C2.34 4 1.68 4 1 4 C0.67 4.99 0.34 5.98 0 7 C-0.66 7 -1.32 7 -2 7 C-1.125 2.25 -1.125 2.25 0 0 Z " fill="#4C905B" transform="translate(129,199)"/>
<path d="M0 0 C-1.65 1.98 -3.3 3.96 -5 6 C-5.99 5.01 -6.98 4.02 -8 3 C-7.34 2.67 -6.68 2.34 -6 2 C-6 1.34 -6 0.68 -6 0 C-3 -1 -3 -1 0 0 Z " fill="#6FAC84" transform="translate(173,216)"/>
<path d="M0 0 C0.94875 0.350625 1.8975 0.70125 2.875 1.0625 C2.215 3.0425 1.555 5.0225 0.875 7.0625 C0.441875 6.423125 0.00875 5.78375 -0.4375 5.125 C-2.03739177 2.79503997 -2.03739177 2.79503997 -5.125 2.0625 C-5.125 1.4025 -5.125 0.7425 -5.125 0.0625 C-3.125 -0.9375 -3.125 -0.9375 0 0 Z " fill="#599766" transform="translate(69.125,173.9375)"/>
<path d="M0 0 C-0.99 1.485 -0.99 1.485 -2 3 C-2.99 3 -3.98 3 -5 3 C-5.33 3.66 -5.66 4.32 -6 5 C-6.33 4.34 -6.66 3.68 -7 3 C-7.99 2.34 -8.98 1.68 -10 1 C-3.71428571 -1.42857143 -3.71428571 -1.42857143 0 0 Z " fill="#85B990" transform="translate(93,163)"/>
<path d="M0 0 C0.598125 0.309375 1.19625 0.61875 1.8125 0.9375 C4.08956772 2.10209704 4.08956772 2.10209704 7 3 C7.6875 5.0625 7.6875 5.0625 8 7 C4.84859577 6.65930765 3.39218439 6.41923159 1.1875 4.0625 C0 2 0 2 0 0 Z " fill="#548E61" transform="translate(325,197)"/>
<path d="M0 0 C3.60296594 -0.41176754 4.78402067 -0.1535853 7.8125 2 C8.534375 2.66 9.25625 3.32 10 4 C9.67 4.66 9.34 5.32 9 6 C7.68 5.67 6.36 5.34 5 5 C5 4.01 5 3.02 5 2 C3.35 1.67 1.7 1.34 0 1 C0 0.67 0 0.34 0 0 Z " fill="#7BA984" transform="translate(87,196)"/>
<path d="M0 0 C2.31 0 4.62 0 7 0 C7 0.33 7 0.66 7 1 C5.35 1 3.7 1 2 1 C1.67 2.65 1.34 4.3 1 6 C0.01 6 -0.98 6 -2 6 C-1.34 4.02 -0.68 2.04 0 0 Z " fill="#6BA073" transform="translate(445,176)"/>
<path d="M0 0 C3.73487777 0.4979837 5.81237635 0.87491756 9 3 C9 3.66 9 4.32 9 5 C6.03 4.01 3.06 3.02 0 2 C0 1.34 0 0.68 0 0 Z " fill="#769D7C" transform="translate(142,163)"/>
<path d="M0 0 C0.7425 0.0825 1.485 0.165 2.25 0.25 C1.92 0.91 1.59 1.57 1.25 2.25 C0.26 2.25 -0.73 2.25 -1.75 2.25 C-1.75 2.91 -1.75 3.57 -1.75 4.25 C-2.41 4.25 -3.07 4.25 -3.75 4.25 C-3.75 5.24 -3.75 6.23 -3.75 7.25 C-4.41 7.25 -5.07 7.25 -5.75 7.25 C-6.08 6.26 -6.41 5.27 -6.75 4.25 C-3.42692308 0.31153846 -3.42692308 0.31153846 0 0 Z " fill="#448E55" transform="translate(95.75,161.75)"/>
<path d="M0 0 C2.97 0.33 5.94 0.66 9 1 C9 1.66 9 2.32 9 3 C5.7 3 2.4 3 -1 3 C-0.67 2.01 -0.34 1.02 0 0 Z " fill="#74A081" transform="translate(346,208)"/>
<path d="M0 0 C1.5 1 1.5 1 3 3 C3.27345479 5.71846235 3.13491285 8.25677199 3 11 C2.67 9.68 2.34 8.36 2 7 C1.34 7 0.68 7 0 7 C0 4.69 0 2.38 0 0 Z " fill="#76AC7D" transform="translate(405,181)"/>
<path d="M0 0 C0.33 0 0.66 0 1 0 C0.67 3.63 0.34 7.26 0 11 C-2.475 10.01 -2.475 10.01 -5 9 C-3.68 8.67 -2.36 8.34 -1 8 C-0.67 5.36 -0.34 2.72 0 0 Z " fill="#91B499" transform="translate(343,178)"/>
<path d="M0 0 C2.31 0 4.62 0 7 0 C6.67 0.99 6.34 1.98 6 3 C3.9375 3.6875 3.9375 3.6875 2 4 C1.34 2.68 0.68 1.36 0 0 Z " fill="#92B29F" transform="translate(118,163)"/>
<path d="M0 0 C0.33 0.66 0.66 1.32 1 2 C1.66 2.33 2.32 2.66 3 3 C2.34 4.32 1.68 5.64 1 7 C-0.32 6.34 -1.64 5.68 -3 5 C-2.67 4.01 -2.34 3.02 -2 2 C-1.34 2.33 -0.68 2.66 0 3 C0 2.01 0 1.02 0 0 Z " fill="#33893F" transform="translate(419,201)"/>
<path d="M0 0 C1.32 1.32 2.64 2.64 4 4 C3.34 4.66 2.68 5.32 2 6 C1.01 6 0.02 6 -1 6 C-1.33 4.35 -1.66 2.7 -2 1 C-1.34 0.67 -0.68 0.34 0 0 Z " fill="#368B40" transform="translate(204,186)"/>
<path d="M0 0 C0.66 1.32 1.32 2.64 2 4 C1.34 4 0.68 4 0 4 C0 4.66 0 5.32 0 6 C-0.99 6 -1.98 6 -3 6 C-3 6.66 -3 7.32 -3 8 C-3.66 7.67 -4.32 7.34 -5 7 C-3.35 4.69 -1.7 2.38 0 0 Z " fill="#72A47A" transform="translate(221,181)"/>
<path d="M0 0 C1.32 0 2.64 0 4 0 C4 1.65 4 3.3 4 5 C2.68 5.33 1.36 5.66 0 6 C0 4.02 0 2.04 0 0 Z " fill="#378941" transform="translate(360,177)"/>
<path d="M0 0 C0.99 0.33 1.98 0.66 3 1 C1.25 4.875 1.25 4.875 -1 6 C-1.66 6.99 -2.32 7.98 -3 9 C-3 7.02 -3 5.04 -3 3 C-2.01 3.33 -1.02 3.66 0 4 C0 2.68 0 1.36 0 0 Z " fill="#8BB093" transform="translate(175,171)"/>
<path d="M0 0 C1.65 0 3.3 0 5 0 C5 0.66 5 1.32 5 2 C5.99 2.33 6.98 2.66 8 3 C5.69 3.33 3.38 3.66 1 4 C0.67 2.68 0.34 1.36 0 0 Z " fill="#729E7C" transform="translate(132,166)"/>
<path d="M0 0 C0.66 0 1.32 0 2 0 C3.35439668 2.70879335 3.06501451 5.00933268 3 8 C2.34 8 1.68 8 1 8 C0.67 5.36 0.34 2.72 0 0 Z " fill="#5E966A" transform="translate(118,200)"/>
<path d="M0 0 C0 3 0 3 -1 6 C-0.34 6.33 0.32 6.66 1 7 C-0.32 7 -1.64 7 -3 7 C-3.33 5.68 -3.66 4.36 -4 3 C-2.68 2.01 -1.36 1.02 0 0 Z " fill="#4F965B" transform="translate(493,202)"/>
<path d="M0 0 C0.66 0.66 1.32 1.32 2 2 C1.34 3.65 0.68 5.3 0 7 C-0.99 7 -1.98 7 -3 7 C-1.125 1.125 -1.125 1.125 0 0 Z " fill="#50905B" transform="translate(350,197)"/>
<path d="M0 0 C0.33 0.99 0.66 1.98 1 3 C-0.40445835 5.2636564 -2.1967913 7.0208685 -4 9 C-4.33 8.01 -4.66 7.02 -5 6 C-3.6875 3.8125 -3.6875 3.8125 -2 2 C-1.34 2 -0.68 2 0 2 C0 1.34 0 0.68 0 0 Z " fill="#6B9C77" transform="translate(294,198)"/>
<path d="M0 0 C0.66 1.32 1.32 2.64 2 4 C0.02 4.66 -1.96 5.32 -4 6 C-4.66 5.34 -5.32 4.68 -6 4 C-4.7934375 3.566875 -4.7934375 3.566875 -3.5625 3.125 C-0.8673532 2.26737432 -0.8673532 2.26737432 0 0 Z M2 1 C2.99 1.495 2.99 1.495 4 2 C3.01 2.495 3.01 2.495 2 3 C2 2.34 2 1.68 2 1 Z " fill="#6A9C73" transform="translate(283,196)"/>
<path d="M0 0 C0 0.66 0 1.32 0 2 C0.66 2.33 1.32 2.66 2 3 C0.02 3.99 0.02 3.99 -2 5 C-2.33 4.01 -2.66 3.02 -3 2 C-5.01508358 1.26676204 -5.01508358 1.26676204 -7 1 C-4.50935112 0.31292445 -2.62113708 0 0 0 Z " fill="#81AC8C" transform="translate(84,195)"/>
<path d="M0 0 C1.85772162 0.08984301 3.71247985 0.24611861 5.5625 0.4375 C7.08037109 0.59025391 7.08037109 0.59025391 8.62890625 0.74609375 C9.80259766 0.87177734 9.80259766 0.87177734 11 1 C11 1.33 11 1.66 11 2 C8.02148438 2.34179688 8.02148438 2.34179688 5.04296875 2.68359375 C2.80603607 2.97170735 2.80603607 2.97170735 0 4 C-0.33 3.01 -0.66 2.02 -1 1 C-0.67 0.67 -0.34 0.34 0 0 Z " fill="#63A87A" transform="translate(327,184)"/>
<path d="M0 0 C2.33944736 0.28730055 4.6739143 0.61936779 7 1 C6.401875 1.268125 5.80375 1.53625 5.1875 1.8125 C3.02775192 2.98493467 1.64209744 4.19369282 0 6 C-0.38218767 4.34385343 -0.71395102 2.67542976 -1 1 C-0.67 0.67 -0.34 0.34 0 0 Z " fill="#6EA176" transform="translate(87,182)"/>
<path d="M0 0 C1.65 0 3.3 0 5 0 C5.28875 0.639375 5.5775 1.27875 5.875 1.9375 C6.82823451 4.15206079 6.82823451 4.15206079 9 5 C6.03 4.505 6.03 4.505 3 4 C3 3.34 3 2.68 3 2 C2.01 1.34 1.02 0.68 0 0 Z " fill="#64996E" transform="translate(469,176)"/>
<path d="M0 0 C2.31 0 4.62 0 7 0 C6.360625 0.268125 5.72125 0.53625 5.0625 0.8125 C2.66868314 1.88667752 2.66868314 1.88667752 2 5 C1.01 5 0.02 5 -1 5 C-0.67 3.35 -0.34 1.7 0 0 Z " fill="#6B9F75" transform="translate(358,176)"/>
<path d="M0 0 C0.66 1.65 1.32 3.3 2 5 C-1.3 4.34 -4.6 3.68 -8 3 C-2 0 -2 0 0 0 Z " fill="#7AAA83" transform="translate(367,204)"/>
<path d="M0 0 C1.65 0.33 3.3 0.66 5 1 C3.68 2.32 2.36 3.64 1 5 C0.34 4.67 -0.32 4.34 -1 4 C-0.67 2.68 -0.34 1.36 0 0 Z " fill="#318A46" transform="translate(82,183)"/>
<path d="M0 0 C1.32 0.33 2.64 0.66 4 1 C4 2.32 4 3.64 4 5 C2.02 5.99 2.02 5.99 0 7 C0 4.69 0 2.38 0 0 Z " fill="#6CA075" transform="translate(163,177)"/>
<path d="M0 0 C2.64 0 5.28 0 8 0 C8 1.65 8 3.3 8 5 C5.28775382 3.38731308 2.62647188 1.75098126 0 0 Z " fill="#418F4C" transform="translate(518,177)"/>
<path d="M0 0 C1.32 0.33 2.64 0.66 4 1 C3.01 1.495 3.01 1.495 2 2 C2.99 2.66 3.98 3.32 5 4 C5 4.99 5 5.98 5 7 C3.0625 6.3125 3.0625 6.3125 1 5 C0.25 2.375 0.25 2.375 0 0 Z " fill="#85B48E" transform="translate(92,166)"/>
<path d="M0 0 C0.66 0.33 1.32 0.66 2 1 C2 2.98 2 4.96 2 7 C0.0625 6.625 0.0625 6.625 -2 6 C-2.33 5.34 -2.66 4.68 -3 4 C-2.01 4 -1.02 4 0 4 C0 2.68 0 1.36 0 0 Z " fill="#80A88C" transform="translate(91,220)"/>
<path d="M0 0 C0.103125 0.639375 0.20625 1.27875 0.3125 1.9375 C0.539375 2.618125 0.76625 3.29875 1 4 C1.99 4.33 2.98 4.66 4 5 C4.33 5.99 4.66 6.98 5 8 C4.01 8 3.02 8 2 8 C-0.1519437 4.77208445 -0.20086443 3.71599191 0 0 Z " fill="#8AB38F" transform="translate(83,201)"/>
<path d="M0 0 C2.475 0.495 2.475 0.495 5 1 C5 2.65 5 4.3 5 6 C4.34 6 3.68 6 3 6 C2.67 5.01 2.34 4.02 2 3 C1.34 2.67 0.68 2.34 0 2 C0 1.34 0 0.68 0 0 Z " fill="#60956D" transform="translate(97,202)"/>
<path d="M0 0 C1.08667969 0.29197266 1.08667969 0.29197266 2.1953125 0.58984375 C2.74960937 0.74582031 3.30390625 0.90179688 3.875 1.0625 C3.875 1.3925 3.875 1.7225 3.875 2.0625 C0.905 2.0625 -2.065 2.0625 -5.125 2.0625 C-5.455 1.4025 -5.785 0.7425 -6.125 0.0625 C-3.57797384 -1.21101308 -2.6967055 -0.73941925 0 0 Z " fill="#568D5C" transform="translate(519.125,194.9375)"/>
<path d="M0 0 C0.66 0.99 1.32 1.98 2 3 C1.34 3.66 0.68 4.32 0 5 C-0.99 4.67 -1.98 4.34 -3 4 C-3.33 4.99 -3.66 5.98 -4 7 C-4.33 6.01 -4.66 5.02 -5 4 C-4.01 3.67 -3.02 3.34 -2 3 C-1.67 2.34 -1.34 1.68 -1 1 C-0.67 0.67 -0.34 0.34 0 0 Z " fill="#B3D2B2" transform="translate(169,179)"/>
<path d="M0 0 C3.68754757 0.49831724 5.60490662 1.10067643 8 4 C5.69 3.67 3.38 3.34 1 3 C0.67 2.01 0.34 1.02 0 0 Z " fill="#75AA82" transform="translate(281,176)"/>
<path d="M0 0 C0 0.66 0 1.32 0 2 C-8.57142857 3.42857143 -8.57142857 3.42857143 -12 1 C-8.0186217 -0.3271261 -4.14954773 -0.06915913 0 0 Z " fill="#378B40" transform="translate(82,172)"/>
<path d="" fill="#FFFFFF" transform="translate(0,0)"/>
</svg>
